<?xml version="1.0" standalone="no"?>
<!DOCTYPE svg PUBLIC "-//W3C//DTD SVG 20010904//EN"
 "http://www.w3.org/TR/2001/REC-SVG-20010904/DTD/svg10.dtd">
<svg class="button-icon" version="1.0" xmlns="http://www.w3.org/2000/svg" width="900.000000pt" height="900.000000pt" viewBox="0 0 900.000000 900.000000" preserveAspectRatio="xMidYMid meet">
    <g transform="translate(0.000000,900.000000) scale(0.100000,-0.100000)" fill="#000000" stroke="none">
        <path fill="currentColor" d="M3650 8433 c-64 -42 -97 -92 -120 -178 -5 -16 -18 -55 -30 -85 -12 -30 -26 -68 -30 -85 -10 -36 -37 -113 -49 -140 -5 -11 -12 -29 -14 -40 -3 -11 -22 -65 -42 -120 -20 -55 -40 -113 -45 -130 -4 -16 -18 -55 -30 -85 -12 -30 -25 -68 -30 -85 -5 -16 -18 -55 -30 -85 -12 -30 -25 -68 -30 -85 -5 -16 -18 -55 -30 -85 -12 -30 -25 -68 -30 -85 -5 -16 -18 -55 -30 -85 -12 -30 -25 -68 -30 -85 -10 -37 -28 -90 -45 -130 -17 -43 -36 -96 -45 -130 -5 -16 -18 -55 -30 -85 -12 -30 -25 -68 -30 -85 -5 -16 -18 -55 -30 -85 -12 -30 -25 -68 -30 -85 -5 -16 -18 -55 -30 -85 -12 -30 -25 -68 -30 -85 -5 -16 -18 -55 -30 -85 -12 -30 -25 -68 -30 -85 -5 -16 -18 -55 -30 -85 -12 -30 -25 -68 -30 -85 -5 -16 -18 -55 -30 -85 -12 -30 -25 -69 -30 -86 -4 -18 -11 -37 -15 -44 -4 -7 -11 -26 -15 -44 -5 -17 -18 -56 -30 -86 -12 -30 -25 -68 -30 -85 -5 -16 -18 -55 -30 -85 -12 -30 -25 -68 -30 -85 -5 -16 -18 -55 -30 -85 -12 -30 -25 -68 -30 -85 -5 -16 -18 -55 -30 -85 -12 -30 -25 -68 -30 -85 -5 -16 -18 -55 -30 -85 -12 -30 -25 -68 -30 -85 -5 -16 -18 -55 -30 -85 -12 -30 -25 -69 -30 -86 -4 -18 -11 -37 -15 -44 -4 -7 -11 -26 -15 -44 -5 -17 -18 -56 -30 -86 -12 -30 -25 -68 -30 -85 -5 -16 -18 -55 -30 -85 -12 -30 -25 -68 -30 -85 -5 -16 -18 -55 -30 -85 -12 -30 -25 -68 -30 -85 -5 -16 -18 -55 -30 -85 -12 -30 -25 -68 -30 -85 -5 -16 -18 -55 -30 -85 -12 -30 -25 -68 -30 -85 -5 -16 -18 -55 -30 -85 -12 -30 -26 -68 -30 -85 -5 -16 -25 -75 -45 -130 -20 -55 -40 -113 -45 -130 -4 -16 -18 -55 -30 -85 -12 -30 -25 -68 -30 -85 -5 -16 -18 -55 -30 -85 -12 -30 -25 -68 -30 -85 -5 -16 -18 -55 -30 -85 -12 -30 -25 -68 -30 -85 -5 -16 -18 -55 -30 -85 -12 -30 -25 -68 -30 -85 -5 -16 -18 -55 -30 -85 -12 -30 -26 -68 -30 -85 -5 -16 -25 -75 -45 -130 -20 -55 -40 -113 -45 -130 -4 -16 -18 -55 -30 -85 -12 -30 -25 -68 -30 -85 -5 -16 -18 -55 -30 -85 -12 -30 -25 -68 -30 -85 -5 -16 -18 -55 -30 -85 -12 -30 -25 -68 -30 -85 -5 -16 -18 -55 -30 -85 -12 -30 -25 -68 -30 -85 -5 -16 -18 -55 -30 -85 -12 -30 -26 -68 -30 -85 -9 -32 -35 -107 -49 -140 -13 -32 -32 -88 -41 -120 -5 -16 -18 -55 -30 -85 -12 -30 -25 -69 -29 -85 -4 -17 -13 -40 -19 -52 -17 -31 -15 -99 4 -136 23 -45 44 -66 86 -88 35 -18 68 -19 654 -19 568 0 618 1 647 18 64 35 94 82 127 197 4 17 18 55 30 85 12 30 25 69 30 85 5 17 18 55 30 85 12 30 25 69 30 85 5 17 18 55 30 85 12 30 25 69 30 85 5 17 18 55 30 85 12 30 25 69 30 85 5 17 18 55 30 85 12 30 25 69 30 85 5 17 18 55 30 85 12 30 25 69 30 85 10 37 28 90 45 130 17 43 36 96 45 130 5 17 18 55 30 85 12 30 25 69 30 85 5 17 18 55 30 85 12 30 26 69 30 85 15 52 41 119 52 132 15 19 2881 19 2896 0 11 -13 37 -80 52 -132 4 -16 18 -55 30 -85 12 -30 25 -68 30 -85 5 -16 18 -55 30 -85 12 -30 25 -68 30 -85 5 -16 18 -55 30 -85 12 -30 25 -68 30 -85 9 -32 28 -88 41 -120 14 -33 40 -108 49 -140 4 -16 18 -55 30 -85 12 -30 25 -68 30 -85 5 -16 18 -55 30 -85 12 -30 25 -68 30 -85 5 -16 18 -55 30 -85 12 -30 25 -68 30 -85 5 -16 18 -55 30 -85 12 -30 25 -68 30 -85 5 -16 18 -55 30 -85 12 -30 26 -68 30 -85 33 -115 63 -162 127 -197 29 -17 79 -18 647 -18 586 0 619 1 654 19 42 22 63 43 86 88 19 37 21 105 4 136 -6 12 -15 35 -19 52 -4 16 -24 75 -44 130 -20 55 -40 114 -45 130 -4 17 -18 55 -30 85 -12 30 -25 69 -30 85 -5 17 -18 55 -30 85 -12 30 -25 69 -30 85 -5 17 -18 55 -30 85 -12 30 -25 69 -30 85 -5 17 -18 55 -30 85 -12 30 -25 69 -30 85 -5 17 -18 55 -30 85 -12 30 -25 69 -30 85 -5 17 -18 55 -30 85 -12 30 -25 69 -30 86 -4 18 -11 37 -15 44 -4 7 -11 26 -15 44 -5 17 -18 56 -30 86 -12 30 -25 69 -30 85 -5 17 -18 55 -30 85 -12 30 -25 69 -30 85 -5 17 -18 55 -30 85 -12 30 -25 69 -30 85 -5 17 -18 55 -30 85 -12 30 -25 69 -30 85 -5 17 -18 55 -30 85 -12 30 -25 69 -30 85 -5 17 -18 55 -30 85 -12 30 -26 69 -30 85 -5 17 -25 75 -45 130 -20 55 -40 114 -45 130 -4 17 -18 55 -30 85 -12 30 -25 69 -30 85 -5 17 -18 55 -30 85 -12 30 -25 69 -30 85 -5 17 -18 55 -30 85 -12 30 -25 69 -30 85 -5 17 -18 55 -30 85 -12 30 -25 69 -30 85 -5 17 -18 55 -30 85 -12 30 -26 69 -30 85 -5 17 -25 75 -45 130 -20 55 -40 114 -45 130 -4 17 -18 55 -30 85 -12 30 -25 69 -30 85 -5 17 -18 55 -30 85 -12 30 -25 69 -30 85 -5 17 -18 55 -30 85 -12 30 -25 69 -30 85 -5 17 -18 55 -30 85 -12 30 -25 69 -30 85 -5 17 -18 55 -30 85 -12 30 -26 69 -30 85 -5 17 -25 75 -45 130 -20 55 -40 114 -45 130 -4 17 -18 55 -30 85 -12 30 -25 69 -30 85 -5 17 -18 55 -30 85 -12 30 -25 69 -30 85 -5 17 -18 55 -30 85 -12 30 -25 69 -30 85 -5 17 -18 55 -30 85 -12 30 -25 69 -30 85 -5 17 -18 55 -30 85 -12 30 -26 69 -30 85 -5 17 -25 75 -45 130 -20 55 -40 114 -45 130 -4 17 -18 55 -30 85 -12 30 -25 69 -30 85 -5 17 -18 55 -30 85 -12 30 -25 69 -30 85 -5 17 -18 55 -30 85 -12 30 -25 69 -30 85 -5 17 -18 55 -30 85 -12 30 -25 69 -30 85 -5 17 -18 55 -30 85 -12 30 -26 69 -30 85 -5 17 -25 75 -45 130 -20 55 -40 114 -45 130 -4 17 -18 55 -30 85 -12 30 -25 69 -30 85 -5 17 -18 55 -30 85 -12 30 -25 69 -30 85 -23 89 -53 134 -112 171 l-38 24 -812 -1 c-736 0 -815 -2 -838 -16z m906 -1995 c10 -18 21 -46 25 -63 4 -16 17 -55 29 -85 12 -30 25 -68 30 -85 5 -16 18 -55 30 -85 12 -30 25 -68 30 -85 5 -16 18 -55 30 -85 12 -30 25 -68 30 -85 5 -16 18 -55 30 -85 12 -30 25 -68 30 -85 5 -16 18 -55 30 -85 12 -30 26 -68 30 -85 5 -16 25 -75 45 -130 20 -55 40 -113 45 -130 4 -16 18 -55 30 -85 12 -30 25 -68 30 -85 5 -16 18 -55 30 -85 12 -30 25 -68 30 -85 5 -16 18 -55 30 -85 12 -30 25 -68 30 -85 5 -16 18 -55 30 -85 12 -30 25 -68 30 -85 5 -16 18 -55 30 -85 12 -30 25 -68 30 -85 5 -16 18 -55 30 -85 12 -30 25 -68 30 -85 9 -34 28 -87 45 -130 17 -40 35 -93 45 -130 5 -16 18 -55 30 -85 33 -84 41 -113 32 -122 -5 -5 -453 -7 -998 -6 l-989 3 2 25 c2 14 10 42 18 63 28 69 63 170 75 212 5 17 18 55 30 85 12 30 25 69 30 85 5 17 18 55 30 85 12 30 25 69 30 85 5 17 18 55 30 85 12 30 25 69 30 85 5 17 18 55 30 85 12 30 25 69 30 85 5 17 18 55 30 85 12 30 25 69 30 85 5 17 18 55 30 85 12 30 26 69 30 85 9 32 35 107 49 140 13 32 32 88 41 120 5 17 18 55 30 85 12 30 25 69 30 85 5 17 18 55 30 85 12 30 25 69 30 85 5 17 18 55 30 85 12 30 25 69 30 85 5 17 18 55 30 85 12 30 25 69 30 85 5 17 18 55 30 85 12 30 26 69 30 85 14 48 39 119 50 137 6 10 10 25 10 33 0 9 9 34 20 55 20 38 22 40 70 40 46 0 51 -2 66 -32z"/>
    </g>
</svg>
