<?xml version="1.0" standalone="no"?>
<!DOCTYPE svg PUBLIC "-//W3C//DTD SVG 20010904//EN"
 "http://www.w3.org/TR/2001/REC-SVG-20010904/DTD/svg10.dtd">
<svg version="1.0" xmlns="http://www.w3.org/2000/svg"
 width="900.000000pt" height="900.000000pt" viewBox="0 0 900.000000 900.000000"
 preserveAspectRatio="xMidYMid meet">
<metadata>
Created by potrace 1.10, written by Peter Selinger 2001-2011
</metadata>
<g transform="translate(0.000000,900.000000) scale(0.100000,-0.100000)"
fill="#000000" stroke="none">
<path d="M4380 7858 c-342 -20 -668 -165 -924 -408 -102 -97 -213 -238 -271
-346 -14 -27 -30 -56 -35 -64 -90 -152 -160 -449 -160 -675 0 -226 70 -523
160 -675 5 -8 21 -37 35 -64 35 -64 77 -125 147 -211 255 -317 640 -517 1046
-543 444 -29 840 114 1156 417 94 90 205 234 261 337 14 27 30 56 35 64 90
152 160 449 160 675 0 226 -70 523 -160 675 -5 8 -21 37 -35 64 -84 155 -247
341 -400 457 -291 220 -632 320 -1015 297z"/>
<path d="M3210 3575 c-88 -24 -136 -36 -175 -45 -36 -8 -72 -18 -230 -66 -27
-8 -63 -19 -80 -24 -28 -8 -53 -16 -135 -45 -33 -12 -57 -21 -160 -60 -25 -9
-58 -23 -73 -31 -16 -8 -33 -14 -38 -14 -21 0 -365 -169 -438 -214 -22 -14
-43 -26 -45 -26 -8 0 -98 -61 -201 -138 -113 -84 -245 -209 -311 -294 -48 -61
-127 -190 -137 -223 -3 -11 -17 -51 -30 -90 -39 -110 -47 -237 -47 -719 0
-416 1 -444 18 -459 17 -16 265 -17 3364 -17 3228 0 3345 1 3361 18 15 17 17
63 17 460 0 460 -9 606 -41 702 -30 88 -43 124 -54 140 -5 8 -20 35 -33 60
-94 177 -373 435 -622 574 -19 11 -53 30 -75 42 -135 75 -350 175 -497 230
-21 8 -57 21 -80 30 -79 30 -174 63 -213 74 -16 5 -52 16 -80 24 -142 43 -193
58 -225 65 -68 16 -136 34 -182 47 -71 21 -84 18 -118 -28 -70 -98 -260 -263
-395 -344 -227 -138 -501 -214 -765 -214 -155 0 -360 34 -458 76 -18 8 -40 14
-48 14 -9 0 -28 6 -42 14 -15 7 -58 28 -97 47 -96 45 -156 82 -250 153 -91 68
-220 191 -265 254 -34 46 -45 48 -120 27z"/>
</g>
</svg>
