<?xml version="1.0" standalone="no"?>
<!DOCTYPE svg PUBLIC "-//W3C//DTD SVG 20010904//EN"
 "http://www.w3.org/TR/2001/REC-SVG-20010904/DTD/svg10.dtd">
<svg version="1.0" xmlns="http://www.w3.org/2000/svg"
 width="900.000000pt" height="900.000000pt" viewBox="0 0 900.000000 900.000000"
 preserveAspectRatio="xMidYMid meet">
<metadata>
Created by potrace 1.10, written by Peter Selinger 2001-2011
</metadata>
<g transform="translate(0.000000,900.000000) scale(0.100000,-0.100000)"
fill="#000000" stroke="none">
<path d="M4330 8216 c-137 -48 -204 -94 -280 -191 -93 -120 -119 -209 -127
-435 -3 -91 -10 -171 -15 -177 -6 -7 -19 -13 -30 -13 -17 0 -98 -25 -160 -49
-12 -5 -43 -17 -68 -26 -172 -67 -421 -210 -556 -321 -131 -106 -292 -270
-388 -394 -46 -59 -128 -176 -140 -200 -4 -8 -22 -42 -41 -75 -34 -60 -64
-120 -92 -185 -9 -19 -20 -43 -24 -52 -12 -24 -39 -97 -49 -133 -4 -16 -13
-43 -18 -60 -33 -97 -64 -239 -87 -397 -13 -91 -15 -288 -15 -1310 l0 -1203
-375 -375 -375 -376 0 -180 c0 -127 4 -184 12 -192 17 -17 5959 -17 5976 0 8
8 12 65 12 192 l0 180 -375 376 -375 375 0 1203 c0 1022 -2 1219 -15 1310 -23
158 -54 300 -87 397 -5 17 -14 44 -18 60 -10 36 -37 109 -49 133 -4 9 -15 33
-24 52 -119 269 -245 449 -471 676 -174 173 -231 218 -444 351 -80 50 -261
134 -382 178 -19 6 -51 18 -70 25 -19 7 -49 15 -67 17 -18 3 -36 10 -41 17 -6
6 -12 85 -15 176 -3 91 -12 190 -20 221 -28 108 -102 227 -187 298 -143 120
-356 164 -520 107z"/>
<path d="M3747 1483 c-18 -18 5 -169 38 -248 95 -229 225 -359 450 -451 110
-44 293 -57 413 -28 261 63 437 217 546 476 24 56 48 172 44 214 l-3 39 -741
3 c-407 1 -744 -1 -747 -5z"/>
</g>
</svg>
