<?xml version="1.0" standalone="no"?>
<!DOCTYPE svg PUBLIC "-//W3C//DTD SVG 20010904//EN"
 "http://www.w3.org/TR/2001/REC-SVG-20010904/DTD/svg10.dtd">
<svg class="button-icon" version="1.0" xmlns="http://www.w3.org/2000/svg" width="900.000000pt" height="900.000000pt" viewBox="0 0 900.000000 900.000000" preserveAspectRatio="xMidYMid meet">
    <g transform="translate(0.000000,900.000000) scale(0.100000,-0.100000)" fill="#000000" stroke="none">
        <path fill="currentColor" d="M4245 8236 c-5 -2 -64 -9 -130 -16 -141 -13 -287 -36 -367 -56 -32 -8 -67 -14 -79 -14 -12 0 -42 -6 -68 -14 -25 -8 -73 -22 -106 -31 -91 -24 -166 -46 -210 -62 -22 -9 -57 -21 -77 -29 -92 -34 -125 -47 -158 -61 -19 -8 -48 -21 -65 -28 -122 -52 -377 -186 -468 -247 -32 -21 -61 -38 -64 -38 -3 0 -22 -13 -43 -30 -21 -16 -41 -30 -44 -30 -8 0 -194 -139 -247 -184 -20 -17 -63 -53 -95 -81 -76 -65 -294 -283 -359 -359 -27 -32 -64 -75 -81 -95 -45 -53 -184 -239 -184 -247 0 -3 -13 -23 -30 -44 -16 -21 -30 -40 -30 -43 0 -3 -17 -32 -38 -64 -91 -137 -241 -437 -306 -610 -9 -24 -23 -61 -31 -83 -40 -108 -44 -120 -90 -280 -22 -76 -36 -133 -44 -180 -5 -25 -13 -65 -19 -90 -18 -73 -40 -224 -58 -390 -18 -174 -16 -572 5 -735 21 -159 42 -288 57 -347 8 -32 14 -67 14 -79 0 -12 6 -42 14 -68 8 -25 22 -73 31 -106 33 -126 47 -171 90 -285 8 -22 22 -59 31 -82 9 -24 23 -59 31 -78 8 -19 21 -48 28 -65 52 -122 186 -377 247 -468 21 -32 38 -61 38 -64 0 -3 14 -22 30 -43 17 -21 30 -41 30 -44 0 -8 139 -194 184 -247 17 -20 54 -62 81 -95 99 -116 329 -339 430 -418 27 -22 52 -42 55 -46 26 -32 262 -195 417 -288 48 -29 95 -57 103 -62 21 -12 279 -140 315 -155 17 -7 46 -20 65 -28 19 -8 54 -22 78 -31 23 -9 60 -23 82 -31 114 -43 159 -57 285 -90 33 -9 81 -23 106 -31 26 -8 56 -14 68 -14 12 0 47 -6 79 -14 67 -17 213 -40 367 -58 142 -17 595 -17 750 0 178 19 423 61 505 88 25 8 54 14 65 14 10 0 37 6 60 14 22 8 67 22 100 31 58 17 87 27 175 60 22 8 59 22 83 31 173 65 473 215 610 306 32 21 61 38 64 38 3 0 22 14 43 30 21 17 41 30 44 30 8 0 194 139 247 184 20 17 63 54 95 81 77 66 296 284 359 359 28 32 64 75 81 95 45 53 184 239 184 247 0 3 14 23 30 44 17 21 30 40 30 43 0 3 17 32 38 64 53 79 89 144 167 303 97 194 113 233 199 468 32 89 89 303 120 452 54 260 71 443 71 750 0 385 -31 626 -131 1000 -32 122 -50 178 -88 278 -9 23 -23 61 -32 85 -65 173 -215 473 -306 610 -21 32 -38 61 -38 64 0 3 -13 22 -30 43 -16 21 -30 41 -30 44 0 8 -139 194 -184 247 -17 20 -53 63 -81 95 -66 77 -284 296 -359 359 -32 28 -75 64 -95 81 -53 45 -239 184 -247 184 -3 0 -23 14 -44 30 -21 17 -40 30 -43 30 -3 0 -32 17 -64 38 -82 55 -148 91 -303 168 -186 91 -216 104 -387 168 -21 8 -56 20 -78 29 -22 8 -67 22 -100 32 -33 9 -78 23 -100 31 -23 8 -49 14 -59 14 -10 0 -39 6 -65 14 -82 26 -287 63 -481 87 -88 10 -623 23 -645 15z m610 -1505 c3 -6 5 -472 5 -1036 0 -770 3 -1031 12 -1048 6 -12 317 -327 690 -700 373 -373 678 -684 678 -691 0 -17 -499 -516 -515 -516 -18 0 -1605 1588 -1605 1606 -3 600 1 2378 5 2385 8 12 722 12 730 0z"/>
    </g>
</svg>