<?xml version="1.0" standalone="no"?>
<!DOCTYPE svg PUBLIC "-//W3C//DTD SVG 20010904//EN"
 "http://www.w3.org/TR/2001/REC-SVG-20010904/DTD/svg10.dtd">
<svg version="1.0" xmlns="http://www.w3.org/2000/svg"
 width="900.000000pt" height="900.000000pt" viewBox="0 0 900.000000 900.000000"
 preserveAspectRatio="xMidYMid meet">
<metadata>
Created by potrace 1.10, written by Peter Selinger 2001-2011
</metadata>
<g transform="translate(0.000000,900.000000) scale(0.100000,-0.100000)"
fill="#000000" stroke="none">
<path d="M2160 8223 c-170 -39 -311 -120 -437 -250 -46 -46 -83 -90 -83 -98 0
-7 -6 -17 -13 -23 -13 -11 -65 -114 -90 -177 -50 -130 -47 47 -47 -3185 0
-2716 2 -3009 16 -3074 75 -334 326 -585 660 -660 65 -14 295 -16 2324 -16
2419 0 2305 -2 2435 47 289 110 488 342 550 638 15 73 16 242 13 1945 l-3
1865 -1145 5 c-1213 6 -1172 5 -1294 51 -228 85 -420 277 -505 505 -46 122
-45 81 -51 1294 l-5 1145 -1130 2 c-978 1 -1139 -1 -1195 -14z m1666 -3752
c214 -47 340 -124 480 -293 26 -30 94 -145 94 -158 0 -4 6 -21 14 -37 8 -15
21 -53 30 -83 60 -214 62 -422 4 -660 -6 -25 -14 -61 -18 -80 -8 -33 -15 -55
-47 -145 -27 -72 -121 -273 -156 -330 -52 -85 -119 -184 -132 -195 -22 -18
-19 -47 6 -55 37 -12 153 -9 194 5 87 29 143 97 244 300 29 58 61 119 72 135
10 17 22 37 26 45 30 67 148 177 231 216 69 32 78 34 185 34 80 0 120 -4 141
-15 15 -8 32 -15 37 -15 20 0 112 -78 148 -125 36 -49 101 -174 101 -196 0 -6
6 -32 14 -58 27 -87 46 -158 46 -174 0 -33 53 -128 79 -141 60 -30 81 -29 115
7 52 55 76 133 76 243 0 109 16 149 84 216 76 73 199 98 289 58 164 -73 215
-223 168 -495 -37 -215 -216 -466 -391 -547 -111 -51 -119 -53 -275 -53 -163
1 -197 8 -325 69 -69 33 -213 164 -243 221 -43 83 -87 177 -87 188 0 22 -16
38 -33 31 -9 -3 -26 -24 -38 -47 -40 -78 -94 -152 -162 -224 -101 -106 -197
-165 -357 -219 -76 -26 -428 -27 -505 -2 -27 9 -61 18 -75 21 -47 9 -118 37
-222 88 l-66 32 -64 -30 c-95 -46 -194 -82 -253 -93 -22 -4 -60 -13 -85 -20
-28 -8 -107 -13 -205 -14 -176 -1 -191 3 -263 68 -60 55 -76 99 -77 206 0 103
6 120 69 188 49 53 109 78 206 86 95 7 201 25 213 36 9 8 -4 40 -33 85 -60 92
-156 315 -193 445 -8 30 -22 80 -31 111 -9 31 -16 67 -16 82 0 14 -7 56 -16
93 -20 90 -15 477 9 569 49 190 151 361 277 462 189 153 470 217 716 164z"/>
<path d="M3509 3900 c-77 -41 -125 -132 -137 -260 -8 -94 7 -318 27 -390 45
-166 56 -198 105 -300 43 -92 89 -170 99 -170 23 0 125 149 184 271 60 125 72
157 117 320 24 83 22 308 -2 374 -28 77 -52 111 -104 144 -45 30 -51 31 -150
31 -82 -1 -111 -5 -139 -20z"/>
<path d="M5065 8050 c-3 -5 -6 -469 -5 -1030 0 -994 1 -1021 20 -1058 22 -42
89 -109 136 -134 29 -16 109 -18 1054 -18 563 -1 1026 3 1030 7 5 4 -495 511
-1110 1126 -615 614 -1121 1113 -1125 1107z"/>
</g>
</svg>
