<?xml version="1.0" standalone="no"?>
<!DOCTYPE svg PUBLIC "-//W3C//DTD SVG 20010904//EN"
 "http://www.w3.org/TR/2001/REC-SVG-20010904/DTD/svg10.dtd">
<svg version="1.0" xmlns="http://www.w3.org/2000/svg"
 width="900.000000pt" height="900.000000pt" viewBox="0 0 900.000000 900.000000"
 preserveAspectRatio="xMidYMid meet">
<metadata>
Created by potrace 1.10, written by Peter Selinger 2001-2011
</metadata>
<g transform="translate(0.000000,900.000000) scale(0.100000,-0.100000)"
fill="#000000" stroke="none">
<path d="M4345 8373 c-51 -15 -108 -38 -135 -54 -8 -5 -22 -12 -30 -16 -19 -8
-89 -61 -115 -88 -35 -34 -99 -124 -111 -155 -3 -8 -12 -28 -19 -45 -60 -138
-60 -312 0 -450 7 -16 16 -37 19 -45 33 -77 173 -227 221 -238 8 -2 16 -9 16
-15 2 -23 -3 -52 -12 -63 -5 -6 -27 -46 -50 -90 -23 -43 -57 -106 -75 -139
-18 -33 -51 -96 -74 -140 -23 -44 -64 -120 -91 -170 -27 -49 -60 -112 -75
-140 -14 -27 -47 -90 -74 -140 -26 -49 -67 -126 -90 -170 -23 -44 -57 -107
-75 -140 -18 -33 -52 -96 -75 -140 -23 -44 -64 -120 -91 -170 -27 -49 -60
-112 -75 -140 -14 -27 -47 -90 -74 -140 -26 -49 -67 -126 -90 -170 -23 -44
-57 -107 -76 -140 -19 -33 -39 -72 -45 -87 -19 -47 -41 -44 -146 18 -54 32
-109 64 -123 71 -14 8 -38 23 -55 33 -16 11 -39 24 -50 30 -11 6 -33 19 -50
30 -16 11 -37 23 -45 27 -17 8 -307 178 -330 193 -8 6 -24 15 -35 20 -11 6
-33 19 -50 30 -16 11 -39 24 -50 30 -11 6 -33 19 -50 30 -16 11 -37 23 -45 27
-8 4 -69 39 -135 78 -66 39 -127 74 -135 78 -8 4 -28 16 -45 27 -16 11 -39 24
-50 30 -11 6 -33 19 -50 30 -16 11 -39 24 -50 30 -11 5 -29 16 -40 22 -10 7
-36 23 -57 36 -43 25 -46 38 -19 96 74 162 66 372 -20 516 -5 8 -12 22 -16 30
-8 19 -61 89 -88 115 -34 35 -124 99 -155 111 -8 3 -28 12 -45 19 -156 68
-366 57 -505 -26 -8 -5 -22 -12 -30 -16 -19 -8 -89 -61 -115 -88 -27 -26 -80
-96 -88 -115 -4 -8 -11 -22 -16 -30 -93 -156 -93 -404 0 -560 5 -8 12 -22 16
-30 8 -19 61 -89 88 -115 34 -35 124 -99 155 -111 8 -3 29 -12 45 -19 64 -28
145 -45 211 -45 l70 0 17 -142 c9 -79 19 -170 21 -203 4 -56 9 -104 37 -355 6
-52 14 -142 19 -200 5 -58 13 -149 19 -202 6 -54 16 -142 22 -195 6 -54 14
-145 19 -203 5 -58 13 -149 19 -202 6 -54 16 -142 22 -195 6 -54 15 -150 20
-213 5 -63 15 -153 22 -200 l12 -85 3295 0 3295 0 12 85 c7 47 17 137 22 200
5 63 14 160 20 215 7 55 16 143 22 195 6 52 14 142 19 200 5 58 13 149 19 203
6 53 16 141 22 195 6 53 14 144 19 202 5 58 13 149 19 203 6 53 16 141 22 195
6 53 15 149 20 212 5 63 15 153 22 200 l12 85 80 6 c104 7 180 28 255 71 8 4
22 11 30 15 19 8 89 61 115 88 35 34 99 124 111 155 3 8 12 29 19 45 68 156
57 366 -26 505 -5 8 -12 22 -16 30 -8 19 -61 89 -88 115 -34 35 -124 99 -155
111 -8 3 -28 12 -45 19 -156 68 -366 57 -505 -26 -8 -5 -22 -12 -30 -16 -19
-8 -89 -61 -115 -88 -27 -26 -80 -96 -88 -115 -4 -8 -11 -22 -16 -30 -86 -144
-94 -354 -20 -516 27 -58 24 -71 -19 -96 -21 -13 -47 -29 -57 -36 -11 -6 -29
-17 -40 -22 -11 -6 -33 -19 -50 -30 -16 -11 -39 -24 -50 -30 -11 -6 -33 -19
-50 -30 -16 -11 -37 -23 -45 -27 -8 -4 -80 -46 -160 -93 -80 -47 -152 -89
-160 -93 -8 -4 -28 -16 -45 -27 -16 -11 -39 -24 -50 -30 -11 -6 -33 -19 -50
-30 -16 -11 -37 -23 -45 -27 -8 -4 -80 -46 -160 -93 -80 -47 -152 -89 -160
-93 -8 -4 -28 -16 -45 -27 -16 -11 -39 -24 -50 -30 -11 -6 -33 -19 -50 -30
-16 -10 -41 -25 -55 -33 -14 -7 -69 -39 -123 -71 -105 -62 -127 -65 -146 -18
-6 15 -26 54 -45 87 -19 33 -53 96 -76 140 -23 44 -64 121 -90 170 -27 50 -60
113 -74 140 -15 28 -48 91 -75 140 -27 50 -68 126 -91 170 -23 44 -64 121 -91
170 -27 50 -60 113 -75 140 -14 28 -47 91 -74 140 -27 50 -60 113 -74 140 -15
28 -48 91 -75 140 -27 50 -68 126 -91 170 -23 44 -64 121 -91 170 -27 50 -60
114 -75 142 -14 29 -29 55 -35 58 -15 10 -11 73 6 77 48 11 188 161 221 238 3
8 12 29 19 45 68 156 57 366 -26 505 -5 8 -12 22 -16 30 -8 19 -61 89 -88 115
-34 35 -124 99 -155 111 -8 3 -28 12 -45 19 -106 46 -269 58 -370 28z"/>
<path d="M1197 2683 c-4 -3 -7 -157 -7 -341 0 -277 3 -345 16 -391 16 -56 38
-112 55 -141 5 -8 12 -22 16 -30 8 -18 61 -89 82 -110 27 -26 105 -87 121 -93
8 -4 22 -11 30 -16 31 -18 87 -40 145 -56 55 -14 299 -16 2855 -13 2547 3
2799 5 2845 20 137 44 237 113 310 213 36 49 53 75 61 95 3 8 12 29 19 45 42
96 46 138 43 485 l-3 335 -3291 3 c-1810 1 -3294 -1 -3297 -5z"/>
</g>
</svg>
