<?xml version="1.0" standalone="no"?>
<!DOCTYPE svg PUBLIC "-//W3C//DTD SVG 20010904//EN"
 "http://www.w3.org/TR/2001/REC-SVG-20010904/DTD/svg10.dtd">
<svg version="1.0" xmlns="http://www.w3.org/2000/svg"
 width="900.000000pt" height="900.000000pt" viewBox="0 0 900.000000 900.000000"
 preserveAspectRatio="xMidYMid meet">
<metadata>
Created by potrace 1.10, written by Peter Selinger 2001-2011
</metadata>
<g transform="translate(0.000000,900.000000) scale(0.100000,-0.100000)"
fill="#000000" stroke="none">
<path d="M3015 7659 c-16 -6 -50 -14 -75 -18 -98 -18 -392 -98 -500 -136 -19
-7 -51 -18 -70 -24 -19 -7 -48 -16 -65 -21 -16 -5 -55 -18 -85 -30 -30 -12
-66 -24 -80 -27 -14 -3 -34 -12 -45 -19 -11 -8 -27 -14 -36 -14 -10 0 -30 -6
-46 -14 -15 -8 -48 -22 -73 -31 -178 -66 -290 -136 -418 -259 -58 -55 -152
-167 -152 -180 0 -2 -19 -33 -42 -68 -50 -75 -52 -79 -115 -183 -70 -117 -71
-118 -83 -140 -6 -11 -26 -47 -44 -80 -39 -68 -202 -394 -236 -470 -30 -67
-52 -120 -91 -210 -17 -40 -38 -94 -49 -125 -5 -14 -18 -50 -30 -80 -12 -30
-25 -68 -30 -85 -5 -16 -14 -46 -21 -65 -6 -19 -17 -51 -24 -70 -17 -50 -62
-204 -89 -307 -40 -154 -63 -259 -89 -398 -9 -44 -21 -107 -27 -140 -6 -33
-15 -94 -20 -135 -5 -41 -13 -111 -19 -155 -6 -44 -18 -152 -26 -240 -20 -215
-20 -825 0 -1020 8 -77 15 -167 15 -200 1 -89 50 -177 115 -206 11 -5 32 -17
47 -27 46 -30 266 -163 295 -178 15 -8 42 -24 58 -34 17 -10 41 -25 55 -33 14
-7 61 -33 105 -57 242 -133 481 -252 685 -341 25 -11 59 -26 75 -33 61 -27
201 -83 308 -122 188 -70 206 -74 302 -74 174 0 327 78 441 225 17 22 33 45
35 50 2 6 53 84 113 174 l109 164 -27 24 c-15 12 -33 23 -40 23 -20 0 -154 59
-321 142 -161 80 -197 102 -229 142 -28 34 -31 45 -31 104 0 78 21 117 86 158
58 37 117 32 204 -16 169 -92 382 -190 535 -245 76 -27 106 -37 135 -45 17 -5
62 -19 100 -30 39 -12 88 -25 110 -29 22 -4 58 -13 80 -19 351 -93 924 -118
1315 -56 186 29 400 77 515 116 17 5 44 13 60 18 54 15 222 76 292 107 18 7
47 20 65 27 53 23 268 130 330 164 80 45 140 44 200 -1 42 -32 88 -104 88
-139 0 -37 -34 -105 -70 -138 -45 -42 -319 -182 -480 -245 -25 -9 -57 -23 -72
-31 -14 -8 -33 -14 -42 -14 -9 0 -16 -5 -16 -11 0 -16 248 -386 290 -433 46
-51 136 -118 185 -138 108 -44 127 -48 223 -48 104 0 125 5 312 75 22 8 59 22
83 31 23 9 56 22 72 29 17 7 71 30 120 50 231 96 539 245 780 380 39 21 86 47
105 58 19 10 49 27 65 38 17 10 37 22 45 26 8 3 33 18 55 32 22 14 56 34 75
44 19 11 53 31 75 46 22 15 47 30 55 34 8 4 29 16 45 27 17 11 37 23 45 26 29
13 82 69 97 104 8 19 19 88 24 155 4 66 13 165 18 220 6 55 11 249 11 430 0
315 -10 502 -41 745 -6 47 -14 119 -19 160 -5 41 -14 102 -20 135 -6 33 -18
96 -26 140 -8 44 -20 100 -26 125 -6 25 -14 63 -18 85 -20 111 -86 346 -154
555 -51 155 -57 173 -72 202 -8 14 -14 33 -14 41 0 9 -6 28 -14 44 -8 15 -22
48 -31 73 -10 25 -24 60 -32 77 -7 18 -20 47 -28 65 -49 117 -195 415 -252
518 -17 30 -41 73 -53 95 -12 22 -30 54 -41 70 -10 17 -23 39 -29 50 -6 11
-19 34 -30 50 -11 17 -24 39 -30 50 -48 90 -171 264 -236 334 -127 136 -263
225 -454 296 -25 9 -58 23 -75 30 -16 7 -39 15 -50 18 -11 3 -45 15 -75 27
-107 41 -135 51 -165 60 -16 4 -46 14 -65 21 -19 6 -51 17 -70 24 -33 12 -103
33 -200 60 -25 7 -68 20 -96 29 -29 9 -60 16 -69 16 -10 0 -41 6 -69 14 -181
50 -317 60 -412 30 -139 -43 -260 -138 -329 -256 -19 -32 -35 -63 -35 -67 0
-17 -26 -18 -120 -5 -134 18 -1306 18 -1440 0 -104 -14 -115 -13 -124 12 -23
67 -145 214 -203 245 -133 72 -187 87 -302 86 -53 0 -109 -5 -126 -10z m2750
-2264 c33 -4 71 -13 85 -20 76 -38 103 -54 159 -97 119 -93 204 -233 267 -443
27 -88 27 -392 0 -485 -34 -122 -63 -187 -123 -280 -223 -347 -617 -388 -883
-93 -28 32 -56 67 -61 78 -5 11 -18 34 -29 50 -34 51 -77 157 -90 220 -5 22
-13 53 -19 68 -6 16 -11 100 -11 195 1 195 16 273 83 422 63 140 198 286 314
342 66 31 188 59 228 53 11 -2 47 -7 80 -10z m-2290 -24 c253 -80 433 -318
484 -642 26 -159 2 -376 -54 -504 -71 -162 -120 -230 -239 -333 -75 -64 -231
-121 -332 -122 -53 0 -137 20 -187 46 -16 8 -33 14 -38 14 -5 0 -33 16 -62 37
-149 104 -249 259 -313 483 -26 89 -26 391 -1 460 9 25 17 53 17 63 0 31 91
209 136 269 85 110 195 190 318 229 72 24 196 23 271 0z"/>
</g>
</svg>
