<?xml version="1.0" standalone="no"?>
<!DOCTYPE svg PUBLIC "-//W3C//DTD SVG 20010904//EN"
 "http://www.w3.org/TR/2001/REC-SVG-20010904/DTD/svg10.dtd">
<svg version="1.0" xmlns="http://www.w3.org/2000/svg"
 width="900.000000pt" height="900.000000pt" viewBox="0 0 900.000000 900.000000"
 preserveAspectRatio="xMidYMid meet">
<metadata>
Created by potrace 1.10, written by Peter Selinger 2001-2011
</metadata>
<g transform="translate(0.000000,900.000000) scale(0.100000,-0.100000)"
fill="#000000" stroke="none">
<path d="M4120 7654 c-227 -38 -400 -83 -570 -149 -135 -52 -388 -180 -455
-229 -16 -12 -37 -26 -45 -29 -23 -11 -137 -94 -221 -162 -88 -71 -288 -268
-350 -345 -24 -30 -46 -57 -49 -60 -14 -12 -100 -129 -100 -135 0 -4 -13 -24
-28 -44 -16 -20 -32 -43 -35 -51 -4 -8 -16 -28 -26 -45 -56 -87 -153 -283
-194 -390 -50 -134 -68 -185 -77 -225 -4 -19 -12 -48 -18 -65 -10 -30 -32
-131 -53 -240 -37 -193 -39 -663 -4 -829 8 -38 15 -80 15 -94 0 -14 6 -48 14
-76 8 -28 22 -80 32 -116 9 -36 28 -96 41 -135 14 -38 28 -84 32 -100 4 -17
12 -39 18 -50 5 -11 17 -36 25 -55 37 -87 146 -296 185 -356 24 -36 43 -68 43
-70 0 -3 41 -60 92 -127 180 -239 542 -569 733 -667 11 -6 34 -19 50 -29 30
-20 215 -112 270 -136 17 -7 46 -20 65 -28 92 -40 238 -87 330 -107 19 -4 55
-12 80 -18 353 -85 763 -86 1135 -2 28 6 68 15 90 20 83 18 236 69 325 107 19
8 49 21 65 28 55 24 240 116 270 136 17 10 39 23 50 29 192 99 557 431 731
665 49 67 94 130 101 140 87 144 116 195 157 280 27 55 55 115 63 133 7 17 19
47 27 65 8 17 17 41 19 52 3 11 16 52 30 90 34 100 53 169 71 255 8 41 20 100
26 130 22 102 37 418 28 581 -11 224 -52 455 -110 624 -5 17 -13 44 -18 60 -4
17 -12 41 -18 55 -5 14 -18 45 -27 70 -45 116 -140 308 -196 395 -10 17 -22
37 -26 45 -3 8 -19 31 -35 51 -15 20 -28 40 -28 44 0 7 -83 117 -113 150 -10
11 -33 39 -50 62 -45 60 -248 258 -336 329 -273 218 -605 396 -893 478 -171
48 -241 64 -409 91 -127 20 -605 19 -729 -1z m736 -925 c4 -6 6 -83 5 -171 -2
-140 0 -162 15 -179 17 -19 32 -20 277 -18 142 0 261 -1 263 -4 6 -5 5 -729 0
-734 -2 -2 -238 -4 -525 -3 -587 1 -581 1 -581 -65 0 -29 6 -39 33 -55 17 -11
40 -20 49 -20 10 0 32 -6 50 -14 42 -17 94 -35 133 -46 17 -5 46 -14 65 -21
19 -6 51 -17 70 -24 19 -7 51 -18 70 -24 19 -7 49 -16 65 -20 43 -11 161 -68
221 -106 158 -101 280 -272 338 -476 11 -39 16 -98 16 -199 0 -170 -10 -213
-80 -360 -39 -83 -81 -142 -150 -211 -73 -73 -236 -179 -275 -179 -8 0 -24
-10 -35 -22 -20 -22 -21 -33 -19 -206 1 -106 -3 -188 -8 -193 -13 -13 -713
-13 -726 0 -6 6 -9 77 -8 171 2 112 -1 166 -10 176 -9 11 -60 14 -280 14 -173
0 -269 4 -269 10 0 6 0 170 0 365 0 195 0 360 0 365 0 7 186 10 538 10 517 0
540 1 556 19 11 12 16 31 14 52 -3 29 -9 34 -58 54 -69 27 -116 44 -155 55
-16 5 -46 14 -65 21 -19 6 -51 17 -70 24 -19 7 -51 18 -70 24 -19 7 -48 16
-65 21 -61 17 -150 51 -185 71 -8 4 -35 18 -60 31 -67 34 -229 201 -276 284
-82 146 -99 216 -99 409 0 179 9 224 70 350 85 174 215 301 396 387 42 20 79
44 83 54 4 10 6 98 5 195 -1 97 2 182 5 188 10 16 722 16 732 0z"/>
<path d="M1495 2227 c-3 -6 -4 -174 -3 -372 l3 -360 2995 0 2995 0 0 370 0
370 -2993 3 c-2395 2 -2994 0 -2997 -11z"/>
</g>
</svg>
