<?xml version="1.0" standalone="no"?>
<!DOCTYPE svg PUBLIC "-//W3C//DTD SVG 20010904//EN"
 "http://www.w3.org/TR/2001/REC-SVG-20010904/DTD/svg10.dtd">
<svg version="1.0" xmlns="http://www.w3.org/2000/svg"
 width="900.000000pt" height="900.000000pt" viewBox="0 0 900.000000 900.000000"
 preserveAspectRatio="xMidYMid meet">
<metadata>
Created by potrace 1.10, written by Peter Selinger 2001-2011
</metadata>
<g transform="translate(0.000000,900.000000) scale(0.100000,-0.100000)"
fill="#000000" stroke="none">
<path d="M4135 8074 c-190 -22 -395 -58 -510 -89 -27 -7 -79 -21 -115 -30 -36
-10 -81 -23 -100 -30 -84 -30 -107 -37 -139 -45 -18 -5 -38 -13 -44 -19 -6 -6
-19 -11 -28 -11 -10 0 -30 -6 -46 -14 -15 -7 -44 -20 -63 -29 -153 -67 -271
-124 -340 -165 -19 -11 -52 -30 -72 -41 -21 -11 -57 -33 -80 -48 -24 -15 -51
-32 -60 -38 -61 -37 -283 -197 -298 -215 -3 -3 -27 -23 -55 -45 -114 -90 -370
-346 -460 -460 -22 -27 -42 -52 -45 -55 -18 -15 -178 -237 -215 -298 -6 -9
-23 -36 -38 -60 -15 -23 -37 -59 -48 -80 -11 -20 -30 -53 -41 -72 -41 -69 -98
-187 -165 -340 -9 -19 -22 -48 -29 -63 -8 -16 -14 -36 -14 -45 0 -9 -7 -26
-15 -36 -8 -11 -15 -28 -15 -38 0 -9 -6 -32 -14 -50 -25 -60 -62 -178 -72
-228 -3 -14 -11 -47 -19 -75 -13 -47 -28 -116 -55 -260 -7 -33 -16 -100 -20
-150 -5 -49 -14 -124 -19 -165 -13 -97 -13 -483 0 -580 5 -41 14 -115 19 -165
4 -49 14 -117 20 -150 29 -149 42 -214 55 -260 22 -86 46 -169 57 -200 5 -16
13 -43 18 -60 10 -36 28 -89 46 -130 7 -16 20 -50 29 -75 40 -106 121 -278
181 -385 18 -33 38 -69 44 -80 6 -11 19 -33 30 -50 11 -16 23 -37 27 -45 11
-24 152 -230 192 -281 115 -147 170 -210 313 -354 132 -134 212 -205 348 -312
29 -22 216 -158 236 -170 10 -7 69 -42 129 -78 61 -36 117 -70 125 -75 21 -12
218 -108 255 -124 17 -7 46 -20 65 -28 19 -9 53 -22 75 -31 22 -8 59 -22 83
-31 85 -32 118 -44 177 -61 33 -9 78 -23 100 -31 23 -8 51 -14 64 -14 21 0 22
3 15 27 -4 16 -9 191 -11 391 l-4 362 -265 0 c-316 0 -376 9 -534 84 -63 29
-201 169 -229 231 -57 124 -81 184 -81 200 0 8 -6 29 -14 47 -8 18 -22 53 -31
78 -67 172 -158 312 -254 386 -62 48 -94 93 -85 118 9 22 67 56 97 56 25 0 52
-10 142 -52 120 -56 238 -160 367 -323 159 -200 214 -225 518 -224 116 0 235
6 318 17 120 16 136 20 153 42 10 14 19 30 19 36 0 18 58 121 118 214 65 98
196 234 265 274 50 29 53 46 10 46 -94 0 -518 93 -621 136 -18 8 -40 14 -50
14 -9 0 -26 7 -36 15 -11 8 -26 15 -33 15 -11 0 -119 46 -164 70 -112 59 -131
71 -238 143 -112 75 -329 300 -364 377 -4 8 -16 29 -26 45 -20 30 -51 92 -76
150 -39 90 -45 107 -45 121 0 9 -7 37 -15 63 -45 144 -61 454 -30 574 8 32 15
67 15 79 0 50 85 271 143 373 51 89 78 130 131 200 33 44 66 84 73 88 17 11
17 68 -1 126 -41 130 -76 376 -76 528 0 188 44 357 112 431 18 18 32 22 79 22
139 0 382 -71 522 -152 26 -15 50 -28 53 -28 14 0 178 -131 241 -193 71 -69
73 -71 105 -60 160 52 304 86 443 103 39 5 104 14 145 19 41 6 152 11 245 11
284 0 575 -46 843 -133 32 -11 34 -9 105 60 63 61 192 164 252 200 158 95 413
173 564 173 47 0 61 -4 79 -22 68 -74 112 -243 112 -431 0 -152 -35 -398 -76
-528 -24 -78 -19 -105 27 -157 37 -43 120 -160 145 -207 27 -50 88 -173 99
-200 7 -16 20 -47 29 -68 9 -21 16 -47 16 -58 0 -11 5 -29 10 -39 20 -37 50
-246 50 -349 0 -106 -18 -246 -47 -356 -19 -72 -50 -169 -62 -193 -5 -9 -25
-50 -46 -91 -39 -78 -103 -177 -145 -225 -155 -175 -331 -309 -535 -405 -38
-18 -79 -37 -89 -43 -11 -6 -31 -14 -45 -18 -14 -5 -51 -18 -81 -30 -30 -12
-71 -26 -90 -30 -19 -4 -48 -13 -65 -18 -66 -23 -283 -72 -320 -72 -16 -1 -57
-7 -90 -15 -33 -8 -74 -15 -92 -15 -49 0 -48 -15 3 -45 65 -38 264 -240 264
-268 0 -3 16 -29 35 -59 83 -125 153 -304 189 -481 13 -64 16 -161 16 -567 0
-283 4 -491 9 -494 5 -4 22 0 38 8 15 8 48 22 73 31 99 37 334 146 400 185 8
5 65 39 125 75 141 84 132 77 249 163 114 83 102 73 218 167 103 82 378 358
464 464 134 167 263 349 314 446 6 11 19 34 29 50 11 17 38 66 61 110 23 44
45 87 50 95 18 31 89 193 115 260 9 25 22 59 29 75 18 41 36 94 46 130 5 17
13 44 18 60 10 28 19 60 56 195 92 340 131 856 91 1210 -32 281 -91 574 -150
740 -32 91 -37 107 -45 139 -5 18 -13 38 -19 44 -6 6 -11 19 -11 28 0 10 -6
30 -14 46 -7 15 -20 44 -29 63 -67 153 -124 271 -165 340 -11 19 -30 52 -41
72 -11 21 -33 57 -48 80 -15 24 -32 51 -38 60 -37 61 -197 283 -215 298 -3 3
-23 28 -45 55 -90 114 -346 370 -460 460 -27 22 -52 42 -55 45 -15 18 -237
178 -298 215 -9 6 -36 23 -60 38 -23 15 -59 37 -80 48 -20 11 -53 30 -72 41
-38 23 -216 111 -267 134 -113 49 -164 70 -208 86 -70 26 -109 40 -140 48 -16
4 -41 12 -55 17 -81 33 -309 87 -495 117 -282 47 -675 59 -930 30z"/>
</g>
</svg>
