<?xml version="1.0" standalone="no"?>
<!DOCTYPE svg PUBLIC "-//W3C//DTD SVG 20010904//EN"
 "http://www.w3.org/TR/2001/REC-SVG-20010904/DTD/svg10.dtd">
<svg version="1.0" xmlns="http://www.w3.org/2000/svg"
 width="900.000000pt" height="900.000000pt" viewBox="0 0 900.000000 900.000000"
 preserveAspectRatio="xMidYMid meet">
<metadata>
Created by potrace 1.10, written by Peter Selinger 2001-2011
</metadata>
<g transform="translate(0.000000,900.000000) scale(0.100000,-0.100000)"
fill="#000000" stroke="none">
<path d="M4275 7983 c-183 -47 -336 -130 -456 -245 -99 -96 -174 -198 -219
-298 -131 -289 -127 -571 10 -855 62 -128 127 -210 250 -315 83 -70 110 -89
190 -127 172 -82 243 -98 440 -98 197 0 268 16 440 98 80 38 107 57 190 127
122 105 193 194 255 325 137 289 135 586 -8 870 -35 68 -41 78 -86 140 -134
180 -325 308 -561 375 -71 20 -371 22 -445 3z"/>
<path d="M3290 5605 c-99 -19 -149 -45 -221 -115 -56 -54 -103 -144 -118 -224
-14 -77 -15 -637 0 -708 28 -141 110 -248 238 -309 57 -27 79 -31 185 -37
l121 -7 0 -910 0 -910 -180 -6 c-222 -7 -245 -13 -340 -84 -60 -45 -100 -92
-132 -154 l-28 -56 -3 -397 -3 -397 33 -68 c40 -85 121 -169 203 -209 l60 -29
1385 0 1385 0 60 29 c82 40 163 124 203 209 l33 68 -3 397 -3 397 -28 56 c-32
62 -72 109 -132 154 -94 71 -116 76 -340 84 l-180 6 -6 1440 c-4 1221 -7 1447
-20 1486 -24 77 -85 165 -147 212 -72 54 -118 73 -209 87 -109 15 -1728 12
-1813 -5z"/>
</g>
</svg>
