<?xml version="1.0" standalone="no"?>
<!DOCTYPE svg PUBLIC "-//W3C//DTD SVG 20010904//EN"
 "http://www.w3.org/TR/2001/REC-SVG-20010904/DTD/svg10.dtd">
<svg version="1.0" xmlns="http://www.w3.org/2000/svg"
 width="900.000000pt" height="900.000000pt" viewBox="0 0 900.000000 900.000000"
 preserveAspectRatio="xMidYMid meet">
<metadata>
Created by potrace 1.10, written by Peter Selinger 2001-2011
</metadata>
<g transform="translate(0.000000,900.000000) scale(0.100000,-0.100000)"
fill="#000000" stroke="none">
<path d="M4316 7709 c-37 -10 -107 -38 -155 -61 -70 -35 -103 -60 -176 -133
-73 -73 -99 -106 -133 -176 -111 -225 -111 -433 0 -658 34 -70 60 -103 133
-176 73 -73 106 -99 176 -133 225 -111 433 -111 658 0 70 34 103 60 176 133
73 73 99 106 133 176 111 225 111 433 0 658 -34 70 -60 103 -133 176 -73 73
-106 99 -176 133 -47 23 -119 51 -160 62 -97 26 -247 25 -343 -1z"/>
<path d="M3355 5578 c-42 -15 -75 -43 -102 -86 -22 -36 -22 -42 -23 -360 0
-341 1 -351 49 -406 40 -45 66 -51 281 -56 l205 -5 0 -1165 0 -1165 -295 -5
c-312 -5 -329 -8 -371 -56 -49 -56 -49 -58 -49 -484 0 -374 1 -403 19 -438 22
-42 43 -63 88 -86 29 -14 153 -16 1333 -16 1180 0 1304 2 1333 16 45 23 66 44
88 86 18 35 19 64 19 438 0 426 0 428 -49 484 -42 48 -59 51 -371 56 l-295 5
-5 1565 c-5 1560 -5 1565 -26 1597 -25 40 -59 66 -103 81 -46 16 -1682 15
-1726 0z"/>
</g>
</svg>
