<?xml version="1.0" standalone="no"?>
<!DOCTYPE svg PUBLIC "-//W3C//DTD SVG 20010904//EN"
 "http://www.w3.org/TR/2001/REC-SVG-20010904/DTD/svg10.dtd">
<svg version="1.0" xmlns="http://www.w3.org/2000/svg"
 width="900.000000pt" height="900.000000pt" viewBox="0 0 900.000000 900.000000"
 preserveAspectRatio="xMidYMid meet">
<metadata>
Created by potrace 1.10, written by Peter Selinger 2001-2011
</metadata>
<g transform="translate(0.000000,900.000000) scale(0.100000,-0.100000)"
fill="#000000" stroke="none">
<path d="M2810 7855 c-80 -7 -158 -18 -173 -24 -16 -6 -40 -11 -54 -11 -25 0
-47 -6 -183 -51 -92 -31 -138 -48 -158 -58 -9 -5 -51 -26 -92 -46 -41 -20 -88
-45 -105 -56 -16 -10 -39 -23 -50 -29 -59 -30 -241 -176 -330 -265 -89 -89
-235 -271 -265 -330 -6 -11 -19 -33 -29 -50 -11 -16 -36 -64 -56 -105 -20 -41
-41 -83 -46 -92 -10 -20 -27 -66 -58 -158 -44 -134 -51 -158 -51 -180 0 -12
-6 -45 -14 -73 -31 -110 -36 -389 -36 -1838 0 -1447 5 -1708 36 -1832 8 -32
14 -68 14 -79 0 -20 7 -45 51 -178 31 -92 48 -138 58 -158 5 -9 26 -51 46 -92
20 -41 45 -88 56 -105 10 -16 23 -39 29 -50 5 -11 25 -40 43 -65 208 -288 435
-483 732 -628 28 -13 58 -28 67 -33 66 -34 262 -93 408 -123 152 -31 388 -36
1840 -36 1452 0 1688 5 1840 36 146 30 341 89 408 123 9 5 49 25 88 44 39 20
86 45 105 56 19 12 41 24 49 28 8 3 31 18 50 32 19 14 42 31 51 36 40 24 170
135 234 200 151 151 267 315 363 510 13 28 28 58 33 67 19 36 71 190 92 273
33 129 47 216 57 369 16 258 13 3027 -4 3251 -8 99 -19 193 -25 208 -6 16 -11
40 -11 54 0 25 -6 47 -51 183 -31 92 -48 138 -58 158 -5 9 -26 51 -46 92 -20
41 -45 89 -56 105 -10 17 -23 39 -29 50 -30 60 -176 242 -265 330 -93 93 -250
219 -337 270 -40 24 -127 70 -173 93 -27 13 -58 28 -67 33 -21 11 -68 28 -158
58 -134 44 -158 51 -180 51 -12 0 -45 6 -73 14 -112 31 -389 36 -1887 35
-1110 -1 -1522 -5 -1630 -14z m4081 -772 c90 -48 141 -99 194 -193 28 -51 28
-249 0 -300 -53 -94 -101 -142 -195 -195 -29 -16 -54 -19 -150 -19 -96 0 -121
3 -150 19 -94 53 -142 101 -195 195 -16 29 -19 54 -19 150 0 124 3 135 68 226
44 60 130 120 196 135 60 14 212 3 251 -18z m-2061 -748 c159 -35 346 -92 408
-124 9 -5 40 -20 67 -33 59 -29 139 -72 177 -96 35 -22 112 -75 118 -82 3 -3
34 -28 69 -55 83 -63 213 -193 276 -276 27 -35 52 -66 55 -69 7 -6 60 -83 82
-118 24 -38 67 -118 96 -177 13 -27 28 -58 33 -67 32 -62 88 -246 125 -413 27
-117 27 -553 0 -670 -37 -167 -93 -351 -125 -413 -5 -9 -20 -39 -33 -67 -29
-59 -72 -139 -96 -177 -22 -35 -75 -112 -82 -118 -3 -3 -28 -34 -55 -69 -63
-83 -193 -213 -276 -276 -35 -27 -66 -52 -69 -55 -6 -7 -83 -60 -118 -82 -38
-24 -118 -67 -177 -96 -27 -13 -58 -28 -67 -33 -62 -32 -246 -88 -413 -125
-117 -27 -553 -27 -670 0 -167 37 -351 93 -413 125 -9 5 -51 26 -92 47 -41 20
-84 42 -95 48 -27 15 -169 108 -175 116 -3 3 -34 28 -69 55 -83 63 -213 193
-276 276 -27 35 -52 66 -55 69 -7 6 -60 83 -82 118 -24 38 -67 118 -96 177
-13 28 -28 58 -33 67 -32 62 -88 246 -125 413 -27 117 -27 553 0 670 57 256
105 388 210 580 106 194 294 416 458 541 35 26 65 51 68 54 6 7 83 60 118 82
38 24 118 67 177 96 28 13 58 28 67 33 98 51 412 133 543 143 124 9 472 -3
545 -19z"/>
<path d="M4310 5600 c-112 -14 -289 -78 -395 -143 -193 -119 -336 -275 -434
-473 -33 -66 -53 -120 -77 -199 -45 -150 -45 -440 0 -590 97 -326 299 -569
592 -714 164 -81 296 -110 494 -110 119 0 222 11 295 33 326 97 569 299 714
592 81 164 110 296 110 494 0 287 -78 504 -263 727 -165 200 -432 350 -681
383 -79 10 -273 10 -355 0z"/>
</g>
</svg>
