<?xml version="1.0" standalone="no"?>
<!DOCTYPE svg PUBLIC "-//W3C//DTD SVG 20010904//EN"
 "http://www.w3.org/TR/2001/REC-SVG-20010904/DTD/svg10.dtd">
<svg version="1.0" xmlns="http://www.w3.org/2000/svg"
 width="900.000000pt" height="900.000000pt" viewBox="0 0 900.000000 900.000000"
 preserveAspectRatio="xMidYMid meet">
<metadata>
Created by potrace 1.10, written by Peter Selinger 2001-2011
</metadata>
<g transform="translate(0.000000,900.000000) scale(0.100000,-0.100000)"
fill="#000000" stroke="none">
<path d="M970 6915 c-8 -2 -51 -9 -95 -15 -134 -20 -280 -71 -370 -130 -16
-11 -37 -23 -45 -27 -26 -11 -92 -65 -153 -123 -92 -87 -199 -242 -235 -340
-25 -69 -51 -156 -62 -210 -15 -76 -8 -3835 7 -3900 16 -66 37 -122 83 -220
61 -131 195 -287 326 -383 58 -41 241 -137 264 -137 8 0 32 -6 55 -14 120 -42
18 -41 3745 -41 3727 0 3625 -1 3745 41 23 8 47 14 55 14 23 0 206 96 264 137
131 96 265 252 326 383 50 106 75 178 85 247 4 27 12 43 21 43 12 0 14 271 14
1905 0 1486 -3 1904 -12 1903 -7 -2 -16 14 -21 37 -9 42 -37 136 -59 195 -36
98 -143 253 -235 340 -61 58 -127 112 -153 123 -8 4 -28 16 -45 26 -86 55
-221 106 -355 133 -53 10 -743 13 -3600 14 -1944 1 -3542 0 -3550 -1z m748
-1387 l-3 -343 -340 0 -340 0 -3 330 c-1 181 0 336 3 342 3 10 81 13 345 13
l340 0 -2 -342z m1040 17 c1 -176 0 -330 -3 -342 l-5 -23 -333 0 c-246 0 -336
3 -345 12 -9 9 -12 98 -12 338 0 180 3 330 7 333 4 4 160 6 347 5 l341 -3 3
-320z m1037 -20 l0 -340 -340 0 -340 0 -3 343 -2 342 342 -2 343 -3 0 -340z
m1043 11 c2 -234 -1 -333 -9 -342 -16 -19 -658 -21 -677 -2 -9 9 -12 98 -12
338 0 180 3 330 7 333 4 4 160 6 347 5 l341 -3 3 -329z m1030 -8 l-3 -343
-340 0 -340 0 -3 330 c-1 181 0 336 3 342 3 10 81 13 345 13 l340 0 -2 -342z
m1050 8 c2 -234 -1 -333 -9 -342 -9 -11 -75 -14 -344 -14 -294 0 -334 2 -339
16 -8 22 -8 659 1 667 4 4 160 6 347 5 l341 -3 3 -329z m1027 -11 l0 -340
-340 0 -340 0 -3 343 -2 342 342 -2 343 -3 0 -340z m-5885 -1045 c0 -5 0 -156
0 -335 0 -179 0 -330 0 -335 0 -7 -116 -9 -342 -8 l-343 3 -3 330 c-1 181 0
336 3 342 6 16 685 19 685 3z m1045 -335 l0 -340 -342 -3 c-227 -1 -343 1
-343 8 0 5 0 156 0 335 0 179 0 330 0 335 0 7 116 9 343 8 l342 -3 0 -340z
m1030 0 l0 -340 -340 0 -340 0 -3 330 c-1 181 0 336 3 343 3 10 76 12 342 10
l338 -3 0 -340z m1045 0 l0 -345 -345 0 -345 0 0 338 c0 186 3 342 7 345 3 4
159 7 345 7 l338 0 0 -345z m1035 0 l0 -340 -340 0 -340 0 -3 330 c-1 181 0
336 3 343 3 10 76 12 342 10 l338 -3 0 -340z m1040 0 l0 -340 -345 0 -345 0
-3 330 c-1 181 0 336 3 343 3 10 77 12 347 10 l343 -3 0 -340z m-345 -1055 c7
-12 9 -131 8 -342 l-3 -323 -2425 0 -2425 0 -3 323 c-1 211 1 330 8 342 11 20
37 20 2420 20 2383 0 2409 0 2420 -20z"/>
</g>
</svg>
