<?xml version="1.0" standalone="no"?>
<!DOCTYPE svg PUBLIC "-//W3C//DTD SVG 20010904//EN"
 "http://www.w3.org/TR/2001/REC-SVG-20010904/DTD/svg10.dtd">
<svg version="1.0" xmlns="http://www.w3.org/2000/svg"
 width="900.000000pt" height="900.000000pt" viewBox="0 0 900.000000 900.000000"
 preserveAspectRatio="xMidYMid meet">
<metadata>
Created by potrace 1.10, written by Peter Selinger 2001-2011
</metadata>
<g transform="translate(0.000000,900.000000) scale(0.100000,-0.100000)"
fill="#000000" stroke="none">
<path d="M4220 8374 c-245 -36 -425 -91 -645 -196 -216 -102 -376 -218 -565
-408 -193 -192 -302 -344 -408 -565 -19 -39 -38 -78 -43 -87 -30 -57 -98 -275
-123 -393 -35 -163 -40 -221 -45 -620 l-6 -410 -355 -6 c-391 -6 -411 -9 -520
-71 -8 -4 -22 -11 -30 -15 -18 -8 -89 -61 -110 -82 -37 -39 -104 -132 -116
-161 -3 -8 -12 -28 -19 -45 -47 -108 -45 -12 -45 -2025 0 -1696 2 -1889 16
-1939 16 -56 38 -112 55 -141 5 -8 12 -22 16 -30 8 -19 61 -89 88 -115 34 -35
124 -99 155 -111 8 -3 29 -12 45 -19 17 -7 57 -21 90 -30 55 -14 299 -16 2855
-13 2547 3 2799 5 2845 20 137 44 237 113 310 213 36 49 53 75 61 95 3 8 12
29 19 45 47 108 45 12 45 2025 0 1696 -2 1889 -16 1939 -16 56 -38 112 -55
141 -5 8 -12 22 -16 30 -8 19 -61 89 -88 115 -41 41 -118 95 -175 121 -98 45
-122 47 -490 53 l-355 6 -5 405 c-6 387 -11 472 -42 600 -6 25 -14 63 -19 85
-13 63 -48 179 -74 240 -7 17 -23 54 -34 83 -57 139 -177 339 -284 472 -73 91
-218 238 -307 311 -139 115 -404 271 -565 332 -96 36 -123 45 -175 60 -171 48
-324 77 -406 77 -34 0 -81 7 -104 15 -54 19 -228 18 -360 -1z m489 -599 c53
-9 119 -22 146 -30 28 -8 59 -16 70 -19 46 -10 112 -37 220 -87 295 -138 556
-399 694 -694 55 -119 77 -176 91 -235 4 -19 12 -48 18 -65 5 -16 17 -79 26
-140 14 -91 17 -172 14 -460 l-3 -350 -1495 0 -1495 0 -3 350 c-3 288 0 369
14 460 9 61 21 124 26 140 6 17 14 46 18 65 14 59 36 116 91 235 138 294 400
556 694 694 117 54 173 77 235 91 19 5 53 14 75 19 156 42 398 52 564 26z"/>
</g>
</svg>
