<?xml version="1.0" standalone="no"?>
<!DOCTYPE svg PUBLIC "-//W3C//DTD SVG 20010904//EN"
 "http://www.w3.org/TR/2001/REC-SVG-20010904/DTD/svg10.dtd">
<svg version="1.0" xmlns="http://www.w3.org/2000/svg"
 width="900.000000pt" height="900.000000pt" viewBox="0 0 900.000000 900.000000"
 preserveAspectRatio="xMidYMid meet">
<metadata>
Created by potrace 1.10, written by Peter Selinger 2001-2011
</metadata>
<g transform="translate(0.000000,900.000000) scale(0.100000,-0.100000)"
fill="#000000" stroke="none">
<path d="M6264 8423 c-145 -180 -369 -413 -524 -544 -138 -117 -299 -230 -473
-333 -97 -57 -277 -141 -377 -176 -14 -5 -50 -18 -80 -30 -108 -42 -348 -118
-515 -164 -27 -8 -75 -21 -105 -29 -30 -9 -64 -18 -75 -20 -21 -5 -196 -51
-255 -67 -19 -5 -75 -19 -125 -30 -49 -11 -117 -27 -150 -36 -33 -9 -87 -22
-120 -30 -33 -9 -83 -22 -111 -30 -28 -8 -59 -14 -69 -14 -10 0 -43 -7 -74
-16 -31 -8 -78 -22 -106 -29 -27 -8 -72 -20 -100 -28 -27 -8 -79 -22 -115 -32
-115 -32 -333 -107 -398 -136 -35 -16 -67 -29 -71 -29 -7 0 -39 -16 -146 -73
-154 -83 -339 -273 -434 -447 -89 -164 -178 -385 -202 -505 -4 -22 -13 -62
-19 -90 -42 -196 -44 -210 -44 -445 0 -231 9 -331 46 -475 5 -22 13 -58 18
-80 11 -55 65 -205 97 -273 162 -346 457 -611 823 -741 70 -25 228 -64 329
-81 100 -17 96 3 -25 105 -122 103 -208 190 -200 203 3 5 77 -26 168 -72 149
-74 284 -126 411 -155 144 -34 603 -37 753 -5 38 8 80 14 93 14 13 0 44 7 70
15 25 8 75 23 111 34 209 63 397 177 540 328 90 95 185 236 192 284 3 21 -1
24 -32 23 -19 -1 -62 -7 -95 -13 -33 -7 -91 -19 -130 -26 -97 -20 -381 -45
-495 -45 -52 0 -155 7 -230 16 -291 33 -515 114 -697 252 -107 80 -180 156
-247 257 -123 186 -176 356 -176 570 0 280 154 506 525 770 215 154 405 260
963 537 513 255 593 298 710 376 35 23 65 42 68 42 3 0 60 41 127 92 108 81
357 317 469 444 57 65 161 203 211 282 26 39 68 105 94 145 66 101 172 313
217 436 45 122 38 147 -20 74z m-3735 -2759 c-54 -132 -94 -261 -119 -384 -25
-120 -28 -342 -5 -416 8 -27 15 -57 15 -67 0 -22 89 -208 124 -260 14 -21 26
-40 26 -43 0 -3 31 -46 69 -97 76 -101 234 -259 324 -322 100 -70 58 -91 -59
-28 -174 92 -329 224 -441 376 -82 111 -84 115 -124 197 -79 164 -77 465 6
695 20 55 40 111 44 125 20 58 68 160 101 213 36 57 60 64 39 11z"/>
<path d="M6069 8307 c-24 -22 -182 -162 -347 -309 -48 -43 -130 -115 -183
-160 -98 -85 -135 -125 -125 -135 3 -3 29 9 58 28 48 30 80 54 203 152 42 34
361 349 408 404 32 37 22 52 -14 20z"/>
<path d="M6299 7753 c-19 -21 -91 -112 -159 -203 -232 -309 -345 -437 -536
-604 -85 -74 -293 -220 -379 -266 -11 -6 -33 -19 -50 -29 -74 -48 -220 -126
-365 -197 -169 -82 -196 -94 -295 -134 -44 -17 -95 -38 -113 -46 -18 -8 -38
-14 -45 -14 -7 0 -28 -11 -47 -25 -30 -22 -31 -25 -12 -25 12 0 41 4 64 9 24
5 77 17 118 26 138 30 270 62 375 90 52 14 126 32 255 61 41 9 93 21 115 28
22 6 81 11 130 11 87 0 90 -1 93 -24 2 -12 1 -33 -2 -45 -6 -26 -78 -137 -100
-155 -9 -7 -16 -20 -16 -27 0 -8 -4 -14 -8 -14 -5 0 -14 -11 -20 -25 -15 -32
-7 -31 37 2 70 53 218 217 327 363 56 75 197 286 224 335 12 22 29 54 39 70
145 248 421 830 410 864 -3 7 -20 -5 -40 -26z"/>
<path d="M1187 6767 c-22 -34 -87 -176 -87 -190 0 -7 -4 -17 -9 -22 -5 -6 -19
-46 -31 -90 -12 -44 -26 -92 -32 -106 -17 -48 -46 -181 -68 -314 -6 -38 -16
-90 -22 -115 -16 -68 -22 -618 -8 -715 6 -44 15 -108 19 -141 5 -34 11 -66 15
-73 4 -6 11 -32 16 -59 34 -183 118 -384 234 -560 51 -77 233 -272 254 -272
18 0 15 10 -24 102 -19 45 -42 99 -49 118 -62 166 -78 209 -85 235 -5 17 -18
62 -30 100 -27 91 -38 143 -73 350 -16 93 -15 381 1 475 30 175 122 408 223
565 10 17 22 37 26 45 22 46 163 237 232 314 82 91 214 213 309 284 13 9 29
22 35 28 7 5 21 14 32 18 14 6 16 10 7 13 -8 3 -24 1 -35 -4 -62 -28 -289
-146 -342 -178 -89 -55 -186 -121 -274 -187 -109 -82 -137 -92 -179 -62 -21
14 -22 21 -21 152 0 75 4 172 7 214 4 42 6 82 4 87 -6 18 -29 12 -45 -12z"/>
<path d="M6090 5507 c0 -8 28 -39 63 -68 34 -30 87 -77 117 -105 30 -29 74
-71 98 -93 63 -58 45 -70 -36 -24 -221 124 -380 187 -547 216 -131 24 -367 41
-465 34 -264 -19 -314 -25 -465 -65 -236 -61 -436 -168 -586 -313 -84 -82
-126 -136 -183 -232 -44 -75 -55 -110 -38 -121 5 -3 31 1 58 9 68 19 208 43
339 57 146 17 523 17 649 0 468 -63 818 -311 973 -688 37 -90 49 -127 68 -218
12 -58 5 -280 -10 -341 -41 -157 -177 -335 -385 -502 -71 -58 -246 -183 -255
-183 -2 0 -24 -13 -48 -30 -25 -16 -48 -30 -53 -30 -4 0 -15 -6 -23 -14 -9 -7
-45 -29 -81 -49 -36 -19 -94 -51 -130 -71 -36 -20 -274 -141 -530 -268 -588
-293 -737 -380 -959 -563 -96 -78 -232 -210 -321 -309 -146 -164 -182 -213
-368 -500 -24 -37 -71 -123 -104 -190 -33 -66 -65 -129 -70 -140 -22 -43 -70
-197 -63 -204 5 -6 51 42 172 178 378 424 771 719 1171 879 28 12 75 30 104
42 71 29 231 83 368 124 63 19 135 41 160 49 25 7 74 21 110 31 36 9 88 23
115 30 28 8 79 21 115 30 36 9 88 23 116 31 28 8 58 14 66 14 9 0 38 6 64 14
27 8 81 22 119 31 39 9 86 20 105 25 80 22 408 103 441 109 19 4 41 11 47 15
6 3 30 11 54 16 57 12 146 36 183 49 17 6 59 20 95 32 126 40 311 116 400 163
218 114 393 309 518 576 76 164 117 277 155 435 62 253 73 666 24 910 -37 181
-68 268 -163 460 -121 246 -292 430 -527 569 -85 50 -266 126 -357 150 -36 10
-87 23 -115 31 -27 7 -80 16 -117 20 -56 5 -68 4 -68 -8z m17 -577 c244 -130
493 -373 596 -580 81 -165 89 -380 22 -615 -56 -195 -87 -257 -115 -229 -7 7
-3 40 11 105 51 227 43 432 -25 614 -76 206 -289 484 -480 627 -104 78 -127
99 -120 109 10 16 36 9 111 -31z"/>
<path d="M3080 4998 c1 -42 25 -112 73 -210 94 -190 252 -335 469 -429 173
-75 231 -90 504 -129 113 -16 558 -9 599 9 l30 14 -35 8 c-19 4 -91 10 -160
14 -149 7 -360 31 -450 51 -36 8 -72 14 -81 14 -34 0 -225 63 -299 98 -169 82
-316 188 -436 315 -78 82 -164 201 -184 252 -13 35 -30 31 -30 -7z"/>
<path d="M7557 4854 c-3 -3 7 -31 22 -63 27 -52 75 -167 106 -251 11 -31 62
-193 86 -275 24 -81 41 -156 49 -210 5 -33 14 -94 20 -135 15 -92 8 -414 -9
-485 -25 -99 -42 -160 -51 -180 -104 -234 -170 -362 -217 -427 -24 -32 -43
-61 -43 -64 0 -3 -34 -50 -76 -105 -70 -93 -345 -379 -364 -379 -5 0 -24 -13
-42 -30 -31 -29 -26 -40 10 -21 9 5 40 20 69 34 189 92 421 238 543 341 73 62
102 73 135 52 32 -21 37 -80 24 -294 -16 -258 2 -267 97 -52 26 58 50 119 55
135 4 17 18 62 29 100 12 39 25 88 29 110 8 38 20 90 43 179 5 21 14 75 19
120 5 44 13 113 19 151 17 125 24 481 11 595 -22 193 -64 396 -108 515 -9 22
-22 58 -30 80 -34 89 -117 246 -181 340 -51 75 -86 115 -146 162 -78 63 -87
68 -99 57z"/>
<path d="M4445 4730 c-148 -9 -141 -8 -128 -21 10 -10 103 -22 318 -39 211
-17 438 -55 486 -80 10 -6 26 -10 36 -10 10 0 31 -7 47 -15 15 -8 33 -15 38
-15 16 0 185 -87 233 -119 25 -17 66 -46 93 -63 113 -78 320 -309 362 -405 14
-34 30 -28 30 12 0 66 -69 217 -148 323 -142 191 -368 325 -652 386 -41 9 -95
21 -120 27 -48 11 -330 29 -420 27 -30 -1 -109 -5 -175 -8z"/>
<path d="M3704 2812 c-36 -26 -116 -106 -194 -192 -115 -128 -309 -408 -405
-585 -21 -38 -46 -83 -56 -100 -62 -104 -191 -367 -247 -500 -93 -224 -105
-255 -98 -262 7 -8 67 56 100 107 13 19 38 54 57 77 19 23 75 95 124 159 119
155 199 248 314 367 257 264 761 571 1276 777 130 52 179 80 141 80 -22 0
-236 -43 -326 -65 -30 -8 -86 -21 -125 -30 -38 -9 -93 -23 -121 -31 -28 -8
-58 -14 -66 -14 -9 0 -38 -6 -64 -14 -69 -19 -173 -42 -282 -62 -85 -15 -94
-15 -117 0 -14 9 -25 26 -25 38 0 28 49 115 111 197 66 87 67 99 3 53z"/>
<path d="M3580 1232 c-49 -32 -194 -144 -254 -195 -94 -80 -366 -356 -366
-372 0 -7 -6 -15 -12 -18 -7 -2 -10 -7 -6 -11 6 -8 24 6 118 89 31 28 92 82
135 120 44 39 104 93 135 120 155 139 284 251 296 258 8 4 14 12 14 17 0 15
-32 11 -60 -8z"/>
</g>
</svg>
