<?xml version="1.0" standalone="no"?>
<!DOCTYPE svg PUBLIC "-//W3C//DTD SVG 20010904//EN"
 "http://www.w3.org/TR/2001/REC-SVG-20010904/DTD/svg10.dtd">
<svg version="1.0" xmlns="http://www.w3.org/2000/svg"
 width="900.000000pt" height="900.000000pt" viewBox="0 0 900.000000 900.000000"
 preserveAspectRatio="xMidYMid meet">
<metadata>
Created by potrace 1.10, written by Peter Selinger 2001-2011
</metadata>
<g transform="translate(0.000000,900.000000) scale(0.100000,-0.100000)"
fill="#000000" stroke="none">
<path d="M1325 7473 c-188 -47 -343 -153 -447 -307 -78 -114 -145 -308 -118
-341 6 -7 54 -40 106 -72 52 -32 106 -65 119 -73 13 -8 56 -35 95 -60 39 -25
83 -53 98 -62 15 -9 37 -23 49 -30 19 -11 168 -104 238 -148 13 -8 67 -42 120
-75 53 -33 107 -67 120 -75 13 -8 67 -42 120 -75 53 -33 107 -67 120 -75 13
-8 67 -42 120 -75 53 -33 107 -67 120 -75 13 -8 67 -42 120 -75 53 -33 107
-67 120 -75 13 -8 67 -42 120 -75 53 -33 107 -67 120 -75 13 -8 67 -42 120
-75 53 -33 107 -67 120 -75 13 -8 67 -42 120 -75 53 -33 107 -67 120 -75 13
-8 67 -42 120 -75 53 -33 107 -67 120 -75 13 -8 67 -42 120 -75 53 -33 107
-67 120 -75 13 -8 67 -42 120 -75 53 -33 107 -67 120 -75 13 -8 67 -42 120
-75 53 -33 107 -67 120 -75 13 -8 67 -42 120 -75 53 -33 107 -67 120 -75 13
-8 51 -32 85 -53 l60 -38 60 38 c68 43 72 45 205 128 53 33 107 67 120 75 13
8 67 42 120 75 53 33 107 67 120 75 13 8 67 42 120 75 53 33 107 67 120 75 13
8 67 42 120 75 53 33 107 67 120 75 13 8 67 42 120 75 53 33 107 67 120 75 13
8 67 42 120 75 53 33 107 67 120 75 13 8 67 42 120 75 53 33 109 68 123 77 15
9 37 23 49 30 12 7 54 33 93 58 107 68 112 70 215 135 53 33 107 67 120 75 13
8 67 42 120 75 53 33 109 68 123 77 15 9 37 23 49 30 12 7 54 33 93 58 107 68
112 70 215 135 53 33 107 67 120 75 13 8 67 42 120 75 53 33 109 68 123 77 15
10 36 22 47 28 11 5 54 33 95 60 41 27 84 55 95 60 11 6 32 18 47 28 15 9 58
36 97 60 97 60 96 58 77 143 -50 217 -198 404 -396 500 -74 36 -102 46 -172
63 -60 15 -350 16 -3165 15 -2723 -1 -3105 -3 -3158 -16z"/>
<path d="M746 6072 c-3 -3 -6 -888 -6 -1967 0 -1709 2 -1968 15 -2011 8 -27
15 -57 15 -66 0 -25 56 -142 99 -208 100 -152 269 -267 463 -314 60 -15 352
-16 3161 -16 2711 0 3100 2 3143 15 27 8 57 15 66 15 25 0 142 56 208 99 152
100 267 269 314 463 14 60 16 259 16 2025 0 1078 -3 1962 -6 1965 -3 4 -31
-11 -62 -31 -31 -21 -79 -51 -105 -67 -27 -16 -59 -36 -72 -44 -13 -8 -67 -42
-120 -75 -53 -33 -107 -67 -120 -75 -13 -8 -67 -42 -120 -75 -53 -33 -107 -67
-120 -75 -13 -8 -67 -42 -120 -75 -53 -33 -107 -67 -120 -75 -13 -8 -67 -42
-120 -75 -53 -33 -107 -67 -120 -75 -13 -8 -67 -42 -120 -75 -53 -33 -107 -67
-120 -75 -13 -8 -67 -42 -120 -75 -53 -33 -107 -67 -120 -75 -13 -8 -67 -42
-120 -75 -53 -33 -107 -67 -120 -75 -13 -8 -67 -42 -120 -75 -53 -33 -107 -67
-120 -75 -13 -8 -67 -42 -120 -75 -53 -33 -107 -67 -120 -75 -13 -8 -67 -42
-120 -75 -53 -33 -107 -67 -120 -75 -13 -8 -67 -42 -120 -75 -53 -33 -107 -67
-120 -75 -13 -8 -77 -48 -142 -88 -65 -41 -163 -102 -218 -137 -55 -36 -110
-70 -122 -77 -12 -7 -70 -43 -130 -79 -59 -36 -121 -69 -138 -73 -110 -26
-118 -26 -189 -9 -63 15 -124 46 -261 133 -13 8 -67 42 -120 75 -53 33 -107
67 -120 75 -161 101 -219 137 -238 148 -12 7 -34 21 -49 30 -15 9 -59 37 -98
62 -39 25 -82 52 -95 60 -13 8 -67 42 -120 75 -54 33 -109 68 -124 77 -14 10
-35 22 -46 28 -11 5 -54 33 -95 60 -41 27 -84 55 -95 60 -11 6 -32 18 -47 28
-15 9 -59 37 -99 62 -39 25 -82 52 -95 60 -12 8 -66 42 -120 75 -53 33 -108
68 -123 77 -14 9 -36 23 -48 30 -19 11 -160 99 -238 148 -13 8 -67 42 -120 75
-53 33 -107 67 -120 75 -13 8 -67 42 -120 75 -53 33 -107 67 -120 75 -13 8
-67 42 -120 75 -53 33 -107 67 -120 75 -13 8 -67 42 -120 75 -53 33 -107 67
-120 75 -13 8 -67 42 -120 75 -53 33 -107 67 -120 75 -13 8 -45 28 -72 44 -26
16 -74 46 -105 67 -31 20 -59 35 -62 31z"/>
</g>
</svg>
