<?xml version="1.0" standalone="no"?>
<!DOCTYPE svg PUBLIC "-//W3C//DTD SVG 20010904//EN"
 "http://www.w3.org/TR/2001/REC-SVG-20010904/DTD/svg10.dtd">
<svg version="1.0" xmlns="http://www.w3.org/2000/svg"
 width="900.000000pt" height="900.000000pt" viewBox="0 0 900.000000 900.000000"
 preserveAspectRatio="xMidYMid meet">
<metadata>
Created by potrace 1.10, written by Peter Selinger 2001-2011
</metadata>
<g transform="translate(0.000000,900.000000) scale(0.100000,-0.100000)"
fill="#000000" stroke="none">
<path d="M1345 7773 c-51 -15 -108 -38 -135 -54 -8 -5 -22 -12 -30 -16 -19 -8
-89 -61 -115 -88 -35 -34 -99 -124 -111 -155 -3 -8 -12 -28 -19 -45 -7 -16
-21 -57 -30 -90 -14 -55 -16 -252 -13 -2255 3 -1992 5 -2200 20 -2245 44 -137
113 -237 213 -310 49 -36 75 -53 95 -61 8 -3 29 -12 45 -19 110 -48 -84 -45
3225 -45 2795 0 3088 1 3139 16 56 16 112 38 141 55 8 5 22 12 30 16 19 8 89
61 115 88 35 34 99 124 111 155 3 8 12 29 19 45 7 17 21 57 30 90 14 55 16
252 13 2255 -3 1992 -5 2200 -20 2245 -44 137 -113 237 -213 310 -49 36 -75
53 -95 61 -8 3 -28 12 -45 19 -110 48 85 45 -3231 44 -2714 -1 -3095 -3 -3139
-16z m6140 -2383 l0 -1795 -2995 0 -2995 0 -3 1785 c-1 982 0 1791 3 1798 3
10 608 12 2997 10 l2993 -3 0 -1795z m-2871 -2130 c75 -36 117 -80 152 -157
35 -80 33 -154 -6 -237 -71 -149 -238 -216 -383 -152 -77 35 -121 77 -157 152
-41 88 -41 160 0 247 36 76 70 110 147 148 83 40 160 40 247 -1z"/>
<path d="M2885 1773 c-41 -17 -110 -65 -132 -93 -68 -85 -84 -221 -36 -317 30
-62 101 -128 165 -154 40 -17 139 -18 1608 -18 1759 0 1603 -7 1699 76 69 60
101 130 101 223 0 93 -32 163 -101 223 -96 83 60 76 -1699 76 -1418 0 -1569
-2 -1605 -16z"/>
</g>
</svg>
