<?xml version="1.0" standalone="no"?>
<!DOCTYPE svg PUBLIC "-//W3C//DTD SVG 20010904//EN"
 "http://www.w3.org/TR/2001/REC-SVG-20010904/DTD/svg10.dtd">
<svg class="button-icon" version="1.0" xmlns="http://www.w3.org/2000/svg" width="900.000000pt" height="900.000000pt" viewBox="0 0 900.000000 900.000000" preserveAspectRatio="xMidYMid meet">
    <g transform="translate(0.000000,900.000000) scale(0.100000,-0.100000)" fill="#000000" stroke="none">
        <path fill="currentColor" d="M2281 7558 c-53 -24 -175 -146 -300 -298 -30 -36 -57 -67 -60 -70 -36 -30 -406 -522 -456 -608 -6 -9 -29 -45 -53 -80 -23 -35 -42 -65 -42 -67 0 -2 -13 -23 -29 -47 -28 -42 -70 -113 -91 -153 -6 -11 -26 -47 -45 -80 -68 -121 -255 -505 -255 -524 0 -5 -6 -22 -14 -38 -18 -37 -40 -88 -61 -143 -9 -25 -23 -60 -31 -78 -8 -18 -14 -39 -14 -47 0 -8 -6 -29 -14 -47 -21 -51 -37 -99 -46 -138 -4 -19 -13 -48 -18 -65 -6 -16 -17 -55 -25 -85 -9 -30 -21 -75 -28 -100 -7 -25 -15 -63 -19 -85 -4 -22 -12 -60 -18 -85 -27 -112 -61 -324 -87 -536 -18 -154 -21 -825 -4 -939 5 -38 14 -113 18 -165 9 -99 22 -191 47 -325 29 -153 46 -234 84 -390 7 -27 16 -66 21 -85 7 -32 22 -83 65 -225 8 -27 19 -63 24 -80 52 -181 99 -251 201 -301 90 -44 242 -104 314 -124 17 -5 44 -13 60 -18 67 -23 219 -62 285 -72 25 -4 72 -12 105 -18 238 -45 697 -58 940 -27 213 27 368 56 491 91 28 8 58 14 67 14 9 0 31 6 49 14 18 7 58 21 88 31 107 33 219 78 374 150 59 28 146 108 146 135 0 9 5 21 11 27 6 6 14 26 19 44 8 32 15 53 45 139 12 32 27 83 61 200 139 485 160 998 63 1500 -6 30 -15 75 -19 100 -10 64 -46 203 -76 301 -8 26 -14 53 -14 60 0 31 -46 102 -95 147 -53 49 -175 134 -218 152 -12 6 -29 14 -37 19 -23 15 -120 58 -171 76 -261 93 -505 139 -802 151 -167 7 -167 7 -173 31 -4 14 1 63 10 108 9 46 16 97 16 113 0 16 7 49 15 72 8 23 15 54 15 67 0 14 6 46 14 72 8 25 22 73 31 106 27 95 46 157 62 200 31 83 46 121 61 155 8 19 20 49 27 65 15 36 172 353 185 375 5 8 39 65 75 125 36 61 71 119 78 130 7 11 24 36 40 56 15 20 27 40 27 44 0 3 19 32 43 63 110 146 134 216 112 320 -11 54 -51 138 -81 173 -8 8 -14 19 -14 23 0 35 -239 275 -335 337 -230 150 -511 218 -644 157z"/>
        <path fill="currentColor" d="M6501 7558 c-57 -26 -153 -123 -330 -333 -24 -27 -53 -63 -66 -78 -13 -15 -48 -58 -77 -95 -29 -37 -55 -69 -59 -72 -5 -4 -78 -104 -191 -260 -43 -59 -173 -254 -182 -271 -3 -8 -15 -27 -26 -44 -11 -16 -24 -39 -30 -50 -6 -11 -19 -33 -30 -50 -11 -16 -24 -39 -30 -50 -6 -11 -26 -47 -45 -80 -34 -59 -215 -422 -239 -480 -7 -16 -20 -46 -28 -65 -9 -19 -23 -55 -33 -80 -9 -25 -23 -58 -30 -75 -25 -59 -63 -166 -75 -210 -4 -16 -12 -41 -18 -55 -12 -30 -44 -140 -85 -290 -26 -95 -40 -154 -47 -200 -4 -25 -12 -65 -18 -90 -49 -212 -92 -649 -92 -935 0 -153 16 -422 36 -595 22 -195 38 -295 90 -550 27 -130 81 -343 119 -465 7 -22 20 -67 30 -100 41 -139 74 -211 117 -252 53 -51 255 -142 403 -183 17 -5 44 -13 60 -18 129 -44 353 -90 570 -117 174 -21 594 -21 760 0 251 32 438 70 605 121 86 27 168 54 192 63 12 5 43 17 68 26 46 18 141 61 219 99 24 11 59 36 77 55 33 34 94 147 94 176 0 8 6 29 14 47 20 49 37 99 46 138 5 19 18 67 29 105 12 39 25 88 30 110 5 22 13 60 19 85 59 244 75 397 74 704 0 267 -7 358 -44 551 -6 33 -14 83 -18 110 -4 28 -13 73 -20 100 -6 28 -19 77 -27 110 -8 33 -20 83 -28 110 -8 28 -16 59 -19 70 -28 116 -100 195 -265 293 -31 18 -63 37 -71 42 -8 6 -22 13 -30 16 -8 4 -38 17 -66 30 -56 25 -124 51 -169 64 -16 4 -43 13 -60 18 -163 56 -420 98 -660 108 -88 3 -166 11 -172 16 -33 27 62 517 133 686 8 18 14 39 14 47 0 8 6 29 14 47 8 18 29 69 46 113 52 129 157 348 208 435 11 19 33 58 48 85 15 28 44 76 65 108 22 32 39 60 39 62 0 6 121 187 165 245 61 82 75 121 75 201 0 58 -5 81 -30 130 -73 149 -224 329 -358 428 -68 50 -254 151 -278 151 -7 0 -28 6 -46 14 -115 48 -289 60 -367 24z"/>
    </g>
</svg>
