<?xml version="1.0" standalone="no"?>
<!DOCTYPE svg PUBLIC "-//W3C//DTD SVG 20010904//EN"
 "http://www.w3.org/TR/2001/REC-SVG-20010904/DTD/svg10.dtd">
<svg version="1.0" xmlns="http://www.w3.org/2000/svg"
 width="900.000000pt" height="900.000000pt" viewBox="0 0 900.000000 900.000000"
 preserveAspectRatio="xMidYMid meet">
<metadata>
Created by potrace 1.10, written by Peter Selinger 2001-2011
</metadata>
<g transform="translate(0.000000,900.000000) scale(0.100000,-0.100000)"
fill="#000000" stroke="none">
<path d="M4130 8224 c-69 -8 -162 -21 -206 -29 -45 -8 -93 -15 -107 -15 -35 0
-126 -30 -167 -56 -38 -23 -77 -69 -102 -119 -8 -16 -22 -93 -32 -170 -9 -77
-23 -194 -31 -260 -9 -66 -15 -133 -15 -150 1 -41 -29 -271 -41 -320 -6 -22
-13 -51 -16 -65 -9 -36 -66 -130 -105 -171 -34 -37 -102 -91 -128 -102 -8 -4
-22 -11 -30 -16 -62 -37 -107 -46 -230 -45 -132 0 -136 1 -289 70 -31 14 -71
32 -88 40 -18 7 -48 21 -65 28 -18 8 -63 29 -101 45 -37 17 -69 31 -72 31 -3
0 -35 14 -72 31 -115 51 -126 56 -236 103 -83 35 -222 9 -288 -56 -50 -48
-203 -238 -280 -347 -57 -80 -116 -168 -122 -181 -4 -8 -16 -28 -27 -45 -11
-16 -24 -39 -30 -50 -6 -11 -26 -47 -44 -80 -62 -110 -133 -258 -176 -365 -12
-30 -28 -68 -35 -85 -7 -16 -15 -39 -18 -50 -3 -11 -17 -51 -31 -89 -30 -80
-33 -138 -9 -198 27 -70 70 -115 202 -214 69 -51 132 -98 138 -104 7 -6 34
-25 60 -42 120 -80 363 -270 402 -314 24 -27 59 -83 79 -124 36 -74 36 -76 36
-210 1 -142 2 -138 -57 -260 -33 -68 -124 -151 -328 -299 -101 -74 -206 -151
-234 -171 -254 -185 -262 -193 -299 -276 -29 -67 -16 -185 30 -276 8 -14 14
-34 14 -43 0 -9 6 -29 14 -43 8 -15 24 -52 36 -82 44 -109 114 -255 176 -365
18 -33 38 -69 44 -80 6 -11 19 -33 30 -50 11 -16 23 -37 27 -45 7 -15 76 -116
122 -181 71 -97 97 -133 111 -149 8 -10 44 -54 80 -97 79 -97 127 -134 205
-158 56 -17 63 -17 121 -2 34 9 92 30 130 47 38 17 83 37 99 44 17 7 46 20 65
29 19 9 65 30 103 46 37 17 69 31 72 31 3 0 35 14 72 31 76 34 116 51 171 75
20 10 46 21 56 27 31 15 146 37 196 37 25 0 75 -6 111 -14 59 -12 80 -20 129
-48 8 -4 26 -13 39 -18 13 -6 54 -41 90 -78 95 -97 145 -210 157 -356 2 -34
11 -119 20 -191 37 -321 44 -384 49 -450 6 -89 28 -158 62 -204 33 -45 59 -71
71 -71 5 0 15 -6 21 -13 17 -21 197 -57 436 -88 50 -6 196 -14 325 -16 243 -6
488 11 644 43 38 8 81 14 96 14 38 0 128 29 170 56 38 23 77 69 102 119 8 17
22 93 31 170 10 77 24 194 32 260 9 66 15 134 15 150 -1 41 29 271 41 320 6
22 13 51 16 65 9 36 66 130 105 171 42 45 129 110 168 125 8 3 33 13 54 22 30
13 71 17 160 17 127 0 150 -5 276 -62 30 -14 75 -34 100 -45 50 -21 93 -40
143 -62 87 -39 233 -104 272 -120 17 -7 46 -19 65 -28 19 -8 52 -23 73 -32 83
-36 222 -9 288 56 70 68 299 366 375 486 68 110 72 116 94 157 12 22 35 63 50
90 60 108 117 228 160 335 12 30 28 69 35 85 7 17 15 39 18 50 3 11 17 51 31
89 30 80 33 138 9 198 -35 92 -40 96 -588 498 -184 135 -242 195 -292 299 -37
76 -37 77 -37 211 -1 142 -2 138 57 260 33 68 124 151 328 299 101 74 207 151
234 171 254 185 260 191 298 273 30 69 18 187 -29 279 -8 14 -14 34 -14 43 0
9 -6 29 -14 43 -8 15 -24 52 -36 82 -44 109 -114 255 -176 365 -18 33 -38 69
-44 80 -6 11 -19 34 -30 50 -11 17 -23 37 -27 45 -16 33 -162 240 -241 339
-141 179 -184 217 -277 246 -56 17 -63 17 -121 2 -34 -9 -92 -30 -130 -47 -38
-17 -82 -37 -99 -44 -16 -7 -46 -20 -65 -29 -19 -9 -65 -30 -103 -46 -37 -17
-69 -31 -72 -31 -3 0 -35 -14 -72 -31 -108 -48 -137 -61 -228 -100 -88 -38
-201 -47 -306 -25 -59 12 -80 20 -129 48 -8 4 -26 13 -39 18 -13 6 -54 41 -90
78 -95 97 -145 210 -157 356 -4 58 -13 133 -48 441 -9 72 -18 162 -21 200 -8
97 -25 155 -59 201 -34 45 -62 74 -72 74 -4 0 -15 6 -23 13 -30 26 -189 59
-366 77 -44 5 -120 13 -170 19 -123 15 -503 12 -655 -5z m530 -2435 c105 -13
280 -59 338 -88 9 -5 50 -25 90 -45 236 -118 450 -332 568 -568 20 -40 40 -81
45 -90 11 -22 42 -119 62 -193 51 -195 51 -435 0 -630 -20 -74 -51 -171 -62
-193 -5 -9 -25 -50 -45 -90 -118 -236 -332 -450 -568 -568 -40 -20 -81 -40
-90 -45 -23 -11 -120 -42 -193 -62 -193 -50 -437 -50 -630 0 -73 20 -170 51
-193 62 -9 5 -50 25 -90 45 -236 118 -450 332 -568 568 -20 40 -40 81 -45 90
-11 22 -42 119 -62 193 -51 196 -51 434 0 630 20 74 51 171 62 193 5 9 25 50
45 90 118 236 332 450 568 568 40 20 81 40 90 45 57 29 233 75 338 89 146 18
185 18 340 -1z"/>
</g>
</svg>
