<?xml version="1.0" standalone="no"?>
<!DOCTYPE svg PUBLIC "-//W3C//DTD SVG 20010904//EN"
 "http://www.w3.org/TR/2001/REC-SVG-20010904/DTD/svg10.dtd">
<svg version="1.0" xmlns="http://www.w3.org/2000/svg"
 width="300.000000pt" height="300.000000pt" viewBox="0 0 300.000000 300.000000"
 preserveAspectRatio="xMidYMid meet">
<metadata>
Created by potrace 1.10, written by Peter Selinger 2001-2011
</metadata>
<g transform="translate(0.000000,300.000000) scale(0.100000,-0.100000)"
fill="#000000" stroke="none">
<path d="M990 2584 c-298 -112 -471 -182 -483 -196 -15 -18 -17 -45 -17 -237
0 -349 24 -533 100 -772 98 -304 288 -605 518 -820 94 -87 268 -219 339 -256
l53 -28 53 28 c71 37 245 169 339 256 230 215 420 516 518 820 76 239 100 423
100 772 0 192 -2 219 -17 238 -25 29 -949 371 -1000 370 -23 0 -219 -68 -503
-175z m955 -129 c231 -85 421 -155 423 -155 12 0 -8 -502 -23 -590 -50 -297
-154 -552 -323 -790 -83 -116 -267 -304 -385 -392 -121 -90 -131 -94 -161 -78
-66 35 -213 156 -316 260 -270 272 -431 586 -501 980 -16 87 -22 176 -26 361
l-6 246 239 88 c132 49 320 119 419 156 99 37 194 68 211 68 17 1 219 -69 449
-154z"/>
<path d="M1520 2340 c-20 -20 -20 -33 -20 -775 0 -742 0 -755 20 -775 11 -11
33 -20 51 -20 79 0 338 320 436 540 96 216 137 397 149 662 7 142 7 144 -17
170 -18 19 -94 51 -287 122 -145 53 -275 96 -288 96 -13 0 -33 -9 -44 -20z"/>
</g>
</svg>
