<?xml version="1.0" standalone="no"?>
<!DOCTYPE svg PUBLIC "-//W3C//DTD SVG 20010904//EN"
 "http://www.w3.org/TR/2001/REC-SVG-20010904/DTD/svg10.dtd">
<svg version="1.0" xmlns="http://www.w3.org/2000/svg"
 width="900.000000pt" height="900.000000pt" viewBox="0 0 900.000000 900.000000"
 preserveAspectRatio="xMidYMid meet">
<metadata>
Created by potrace 1.10, written by Peter Selinger 2001-2011
</metadata>
<g transform="translate(0.000000,900.000000) scale(0.100000,-0.100000)"
fill="#000000" stroke="none">
<path d="M4135 8074 c-190 -22 -395 -58 -510 -89 -27 -7 -79 -21 -115 -30 -36
-10 -81 -23 -100 -30 -84 -30 -107 -37 -139 -45 -18 -5 -38 -13 -44 -19 -6 -6
-19 -11 -28 -11 -10 0 -30 -6 -46 -14 -15 -7 -44 -20 -63 -29 -153 -67 -271
-124 -340 -165 -19 -11 -52 -30 -72 -41 -21 -11 -57 -33 -80 -48 -24 -15 -51
-32 -60 -38 -61 -37 -283 -197 -298 -215 -3 -3 -27 -23 -55 -45 -114 -90 -370
-346 -460 -460 -22 -27 -42 -52 -45 -55 -18 -15 -178 -237 -215 -298 -6 -9
-23 -36 -38 -60 -15 -23 -37 -59 -48 -80 -11 -20 -30 -53 -41 -72 -41 -69 -98
-187 -165 -340 -9 -19 -22 -48 -29 -63 -8 -16 -14 -36 -14 -45 0 -9 -7 -26
-15 -36 -8 -11 -15 -28 -15 -38 0 -9 -6 -32 -14 -50 -25 -60 -62 -178 -72
-228 -3 -14 -11 -47 -19 -75 -13 -47 -28 -116 -55 -260 -7 -33 -16 -100 -20
-150 -5 -49 -14 -124 -19 -165 -16 -115 -13 -475 4 -630 32 -286 89 -566 150
-740 7 -19 18 -51 24 -70 7 -19 17 -50 21 -69 5 -18 13 -38 19 -44 6 -6 11
-19 11 -28 0 -10 6 -30 14 -46 7 -15 20 -44 29 -63 67 -153 124 -271 165 -340
11 -19 30 -52 41 -72 11 -21 33 -57 48 -80 15 -24 32 -51 38 -60 37 -61 197
-283 215 -298 3 -3 23 -27 45 -55 90 -114 346 -370 460 -460 28 -22 52 -42 55
-45 15 -18 237 -178 298 -215 9 -6 36 -23 60 -38 23 -15 61 -38 83 -50 22 -12
66 -36 97 -54 82 -45 166 -86 312 -150 19 -9 48 -22 63 -29 16 -8 35 -14 42
-14 7 0 26 -6 42 -14 30 -15 80 -33 128 -46 17 -5 44 -13 60 -18 197 -66 443
-116 735 -148 195 -21 743 -15 835 9 347 91 580 324 672 672 13 50 17 157 23
640 7 639 6 629 72 745 4 8 13 26 18 39 14 31 160 177 191 191 13 5 31 14 39
18 46 26 69 35 134 53 66 17 115 19 750 19 592 0 686 2 735 16 56 16 112 38
141 55 8 5 22 12 30 16 19 8 89 61 115 88 35 34 99 124 111 155 3 8 12 29 19
45 43 99 45 124 45 586 0 451 -7 567 -46 809 -30 184 -80 402 -119 510 -32 91
-37 107 -45 139 -5 18 -13 38 -19 44 -6 6 -11 19 -11 28 0 10 -6 30 -14 46 -7
15 -20 44 -29 63 -67 153 -124 271 -165 340 -11 19 -30 52 -41 72 -11 21 -33
57 -48 80 -15 24 -32 51 -38 60 -37 61 -197 283 -215 298 -3 3 -23 28 -45 55
-90 114 -346 370 -460 460 -27 22 -52 42 -55 45 -15 18 -237 178 -298 215 -9
6 -36 23 -60 38 -23 15 -59 37 -80 48 -20 11 -53 30 -72 41 -38 23 -216 111
-267 134 -113 49 -164 70 -208 86 -70 26 -109 40 -140 48 -16 4 -41 12 -55 17
-81 33 -309 87 -495 117 -282 47 -675 59 -930 30z m494 -600 c31 -9 70 -22 86
-29 17 -7 37 -16 45 -19 93 -40 228 -175 265 -266 4 -8 11 -23 16 -34 23 -42
49 -166 49 -236 0 -42 -9 -106 -19 -146 -18 -65 -27 -88 -53 -134 -4 -8 -13
-26 -18 -39 -14 -31 -160 -177 -191 -191 -13 -5 -31 -14 -39 -18 -46 -26 -69
-35 -134 -53 -91 -24 -201 -24 -292 0 -65 18 -88 27 -134 53 -8 4 -26 13 -39
18 -31 14 -177 160 -191 191 -5 13 -14 31 -18 39 -26 46 -35 69 -53 134 -24
91 -24 201 0 292 18 65 27 88 53 134 4 8 13 26 18 39 14 31 160 177 191 191
13 5 31 14 39 18 46 26 69 36 129 52 85 23 217 25 290 4z m-1732 -698 c219
-39 387 -186 470 -411 26 -72 26 -291 0 -355 -53 -126 -84 -178 -152 -245 -67
-68 -119 -99 -245 -152 -64 -26 -283 -26 -355 0 -190 70 -321 196 -385 372
-34 94 -44 200 -27 295 18 100 30 135 76 214 61 106 183 209 301 254 39 15
158 39 205 41 17 0 67 -6 112 -13z m3388 0 c95 -17 130 -30 209 -75 106 -61
210 -184 254 -301 8 -19 20 -73 29 -120 32 -185 -35 -390 -168 -516 -84 -78
-139 -112 -244 -151 -72 -26 -291 -26 -355 0 -126 53 -178 84 -245 152 -68 67
-99 119 -152 245 -26 64 -26 283 0 355 27 73 48 115 81 160 104 142 219 217
386 250 86 17 111 17 205 1z m-4049 -1705 c40 -11 80 -24 90 -30 11 -5 26 -12
34 -16 91 -37 228 -174 265 -265 4 -8 11 -23 16 -34 23 -42 49 -166 49 -236 0
-42 -9 -106 -19 -146 -18 -65 -27 -88 -53 -134 -4 -8 -13 -26 -18 -39 -14 -31
-160 -177 -191 -191 -13 -5 -31 -14 -39 -18 -46 -26 -69 -35 -134 -53 -140
-37 -311 -16 -426 52 -8 5 -26 14 -39 19 -31 14 -177 160 -191 191 -5 13 -14
31 -18 39 -26 46 -35 69 -53 134 -10 40 -19 104 -19 146 0 42 9 106 19 146 18
65 27 88 53 134 4 8 13 26 18 39 14 31 160 177 191 191 13 5 31 14 39 18 46
26 69 36 129 52 88 24 208 24 297 1z m4793 3 c31 -9 70 -22 86 -29 17 -7 37
-16 45 -19 93 -40 228 -175 265 -266 4 -8 11 -23 16 -34 23 -42 49 -166 49
-236 0 -42 -9 -106 -19 -146 -18 -65 -27 -88 -53 -134 -4 -8 -13 -26 -18 -39
-14 -31 -160 -177 -191 -191 -13 -5 -31 -14 -39 -19 -115 -68 -286 -89 -426
-52 -65 18 -88 27 -134 53 -8 4 -26 13 -39 18 -31 14 -177 160 -191 191 -5 13
-14 31 -18 39 -26 46 -35 69 -53 134 -24 91 -24 201 0 292 18 65 27 88 53 134
4 8 13 26 18 39 14 31 160 177 191 191 13 5 31 14 39 18 46 26 69 36 129 52
85 23 217 25 290 4z m-2531 -2100 c205 -49 377 -172 479 -339 15 -24 51 -99
68 -140 58 -138 58 -375 1 -510 -100 -234 -220 -354 -451 -450 -173 -72 -447
-52 -606 44 -19 12 -41 24 -49 28 -24 10 -92 64 -130 103 -70 70 -120 147
-171 265 -63 143 -63 387 0 530 97 225 210 337 436 436 106 47 303 62 423 33z"/>
</g>
</svg>
