<?xml version="1.0" standalone="no"?>
<!DOCTYPE svg PUBLIC "-//W3C//DTD SVG 20010904//EN"
 "http://www.w3.org/TR/2001/REC-SVG-20010904/DTD/svg10.dtd">
<svg version="1.0" xmlns="http://www.w3.org/2000/svg"
 width="900.000000pt" height="900.000000pt" viewBox="0 0 900.000000 900.000000"
 preserveAspectRatio="xMidYMid meet">
<metadata>
Created by potrace 1.10, written by Peter Selinger 2001-2011
</metadata>
<g transform="translate(0.000000,900.000000) scale(0.100000,-0.100000)"
fill="#000000" stroke="none">
<path d="M4300 7953 c-189 -67 -303 -162 -417 -348 -7 -11 -16 -27 -20 -35 -4
-8 -26 -46 -48 -85 -23 -38 -44 -77 -48 -85 -4 -8 -16 -28 -27 -45 -11 -16
-23 -37 -27 -45 -4 -8 -25 -46 -48 -85 -22 -38 -44 -77 -48 -85 -4 -8 -16 -28
-27 -45 -11 -16 -23 -37 -27 -45 -4 -8 -25 -46 -48 -85 -22 -38 -44 -77 -48
-85 -4 -8 -16 -28 -27 -45 -11 -16 -23 -37 -27 -45 -4 -8 -32 -58 -63 -110
-31 -52 -59 -102 -63 -110 -4 -8 -16 -28 -27 -45 -11 -16 -26 -43 -34 -60 -8
-16 -29 -52 -45 -80 -17 -27 -35 -59 -41 -70 -5 -11 -14 -27 -20 -35 -14 -22
-95 -162 -103 -180 -4 -8 -16 -28 -27 -45 -11 -16 -23 -37 -27 -45 -4 -8 -32
-58 -63 -110 -31 -52 -59 -102 -63 -110 -4 -8 -16 -28 -27 -45 -11 -16 -23
-37 -27 -45 -4 -8 -25 -46 -48 -85 -22 -38 -44 -77 -48 -85 -4 -8 -16 -28 -26
-45 -11 -16 -32 -52 -47 -80 -49 -89 -55 -100 -74 -130 -11 -16 -23 -37 -27
-45 -4 -8 -32 -58 -63 -110 -31 -52 -59 -102 -63 -110 -4 -8 -16 -28 -27 -45
-11 -16 -23 -37 -27 -45 -4 -8 -25 -46 -48 -85 -22 -38 -44 -77 -48 -85 -4 -8
-16 -28 -27 -45 -11 -16 -23 -37 -27 -45 -4 -8 -26 -46 -48 -85 -23 -38 -44
-77 -48 -85 -4 -8 -16 -28 -27 -45 -11 -16 -23 -37 -27 -45 -4 -8 -25 -46 -48
-85 -22 -38 -44 -77 -48 -85 -4 -8 -16 -28 -27 -45 -11 -16 -23 -37 -27 -45
-4 -8 -25 -46 -48 -85 -22 -38 -44 -77 -48 -85 -4 -8 -16 -28 -27 -45 -11 -16
-23 -37 -27 -45 -4 -8 -32 -58 -63 -110 -31 -52 -59 -102 -63 -110 -4 -8 -16
-28 -27 -45 -11 -16 -26 -43 -34 -60 -8 -16 -29 -52 -45 -80 -17 -27 -35 -59
-41 -70 -6 -11 -19 -33 -29 -50 -11 -16 -32 -52 -47 -80 -49 -89 -55 -100 -74
-130 -11 -16 -23 -37 -27 -45 -4 -8 -32 -58 -63 -110 -31 -52 -59 -102 -63
-110 -4 -8 -16 -28 -27 -45 -11 -16 -23 -37 -27 -45 -4 -8 -25 -46 -48 -85
-22 -38 -44 -77 -48 -85 -4 -8 -16 -28 -27 -45 -11 -16 -23 -37 -27 -45 -8
-16 -88 -156 -103 -180 -5 -8 -24 -44 -41 -79 -84 -173 -92 -348 -24 -531 22
-59 25 -64 45 -95 11 -16 23 -37 27 -45 4 -8 20 -28 35 -45 15 -16 28 -33 28
-37 0 -13 155 -130 190 -144 8 -3 29 -12 45 -19 112 -48 -112 -45 3335 -45
2923 0 3209 1 3255 16 54 17 111 41 135 55 8 5 22 12 30 16 22 9 150 113 150
121 0 4 13 21 28 37 15 17 31 37 35 45 4 8 16 29 27 45 20 31 23 36 45 95 68
183 60 358 -24 531 -17 35 -36 71 -41 79 -15 24 -95 164 -103 180 -4 8 -16 29
-27 45 -11 17 -23 37 -27 45 -4 8 -26 47 -48 85 -23 39 -44 77 -48 85 -4 8
-16 29 -27 45 -11 17 -23 37 -27 45 -4 8 -32 58 -63 110 -31 52 -59 102 -63
110 -4 8 -16 29 -27 45 -11 17 -23 37 -27 45 -8 18 -89 158 -103 180 -6 8 -15
24 -20 35 -6 11 -24 43 -41 70 -16 28 -37 64 -45 80 -8 17 -23 44 -34 60 -11
17 -23 37 -27 45 -4 8 -32 58 -63 110 -31 52 -59 102 -63 110 -4 8 -16 29 -27
45 -11 17 -23 37 -27 45 -4 8 -26 47 -48 85 -23 39 -44 77 -48 85 -4 8 -16 29
-27 45 -11 17 -23 37 -27 45 -4 8 -26 47 -48 85 -23 39 -44 77 -48 85 -4 8
-16 29 -27 45 -11 17 -23 37 -27 45 -4 8 -25 47 -48 85 -22 39 -44 77 -48 85
-4 8 -16 29 -27 45 -11 17 -23 37 -27 45 -4 8 -26 47 -48 85 -23 39 -44 77
-48 85 -4 8 -16 29 -27 45 -11 17 -23 37 -27 45 -4 8 -26 47 -48 85 -23 39
-44 77 -48 85 -4 8 -16 29 -27 45 -11 17 -23 37 -27 45 -4 8 -26 47 -48 85
-23 39 -44 77 -48 85 -4 8 -16 29 -27 45 -11 17 -23 37 -27 45 -4 8 -26 47
-48 85 -23 39 -44 77 -48 85 -4 8 -16 29 -27 45 -11 17 -23 37 -27 45 -4 8
-32 58 -63 110 -31 52 -59 102 -63 110 -4 8 -16 29 -27 45 -11 17 -23 37 -27
45 -8 18 -89 158 -103 180 -6 8 -15 24 -20 35 -6 11 -24 43 -41 70 -16 28 -37
64 -45 80 -8 17 -23 44 -34 60 -11 17 -23 37 -27 45 -4 8 -32 58 -63 110 -31
52 -59 102 -63 110 -4 8 -16 29 -27 45 -11 17 -23 37 -27 45 -4 8 -26 47 -48
85 -23 39 -44 77 -48 85 -4 8 -16 29 -27 45 -11 17 -23 37 -27 45 -4 8 -26 47
-48 85 -23 39 -44 77 -48 85 -4 8 -16 29 -27 45 -11 17 -23 37 -27 45 -4 8
-25 47 -48 85 -22 39 -44 77 -48 85 -4 8 -16 29 -27 45 -11 17 -24 41 -30 54
-6 14 -50 63 -98 111 -89 87 -164 133 -287 174 -68 22 -310 22 -375 -1z"/>
</g>
</svg>
