<?xml version="1.0" standalone="no"?>
<!DOCTYPE svg PUBLIC "-//W3C//DTD SVG 20010904//EN"
 "http://www.w3.org/TR/2001/REC-SVG-20010904/DTD/svg10.dtd">
<svg version="1.0" xmlns="http://www.w3.org/2000/svg"
 width="900.000000pt" height="900.000000pt" viewBox="0 0 900.000000 900.000000"
 preserveAspectRatio="xMidYMid meet">
<metadata>
Created by potrace 1.10, written by Peter Selinger 2001-2011
</metadata>
<g transform="translate(0.000000,900.000000) scale(0.100000,-0.100000)"
fill="#000000" stroke="none">
<path d="M5865 7655 c-5 -2 -50 -9 -100 -14 -88 -10 -149 -22 -210 -43 -16 -5
-43 -14 -60 -18 -82 -23 -257 -103 -330 -150 -16 -11 -37 -23 -45 -27 -58 -26
-248 -195 -361 -319 -70 -78 -201 -298 -254 -429 -7 -16 -20 -47 -29 -68 -9
-21 -16 -45 -16 -53 0 -9 -7 -37 -14 -63 -41 -130 -50 -203 -49 -416 0 -167 4
-224 18 -278 10 -40 13 -73 8 -78 -9 -9 -261 13 -394 36 -47 8 -98 15 -113 15
-15 0 -55 6 -89 14 -34 8 -98 21 -142 31 -84 17 -159 36 -236 61 -26 7 -54 14
-63 14 -8 0 -30 6 -48 14 -18 7 -80 28 -138 47 -99 31 -132 43 -205 74 -16 7
-55 23 -85 35 -114 46 -374 172 -450 219 -19 11 -42 24 -50 28 -8 3 -52 29
-98 57 -46 28 -91 56 -100 61 -40 24 -177 119 -278 193 -59 42 -182 142 -234
188 -224 199 -324 300 -506 507 -32 37 -55 56 -65 52 -14 -5 -69 -115 -104
-205 -9 -25 -23 -60 -31 -78 -8 -18 -14 -40 -14 -48 0 -9 -6 -37 -14 -63 -64
-205 -64 -540 1 -786 37 -143 98 -295 156 -390 53 -86 120 -187 148 -220 52
-63 222 -229 273 -265 25 -18 46 -37 46 -42 0 -14 -120 -9 -200 8 -107 22
-274 71 -318 93 -125 62 -154 73 -164 63 -13 -13 5 -221 29 -327 17 -80 67
-246 87 -290 101 -221 189 -350 350 -511 113 -113 184 -170 304 -246 27 -17
152 -79 207 -103 69 -30 196 -72 233 -77 42 -6 26 -23 -39 -42 -56 -17 -99
-19 -337 -20 -242 0 -272 -2 -266 -16 3 -8 10 -26 14 -40 8 -29 57 -138 71
-160 5 -8 14 -25 19 -38 14 -33 146 -229 178 -265 135 -151 274 -268 417 -353
24 -15 157 -80 200 -99 127 -56 298 -100 424 -110 87 -7 131 -18 131 -33 0 -5
-21 -23 -47 -40 -27 -16 -80 -52 -119 -79 -95 -64 -106 -71 -129 -83 -11 -6
-33 -19 -50 -30 -16 -10 -66 -38 -110 -60 -44 -23 -87 -45 -95 -50 -29 -17
-189 -87 -230 -100 -14 -5 -50 -18 -80 -30 -30 -12 -68 -25 -85 -30 -16 -5
-43 -13 -60 -18 -73 -26 -230 -65 -340 -86 -253 -48 -280 -50 -623 -51 -182 0
-332 -3 -332 -7 0 -3 37 -28 82 -55 111 -65 112 -65 203 -113 44 -22 87 -45
95 -50 30 -18 187 -89 275 -125 50 -20 103 -43 118 -51 16 -8 36 -14 46 -14 9
0 25 -6 36 -14 11 -7 31 -16 45 -19 14 -3 41 -11 60 -17 87 -31 108 -38 160
-53 30 -8 80 -22 110 -30 117 -33 199 -51 385 -87 33 -6 92 -15 130 -20 39 -4
102 -13 140 -18 195 -30 567 -40 835 -22 249 16 418 38 635 80 33 7 78 15 100
20 89 17 335 82 385 103 14 5 39 13 55 17 38 10 120 39 218 76 150 58 325 139
482 225 50 26 99 53 110 59 11 6 34 19 50 30 17 11 39 24 50 30 91 48 422 287
521 375 185 166 299 276 394 381 63 69 122 133 130 142 8 8 35 41 60 73 25 32
66 84 92 117 45 57 247 352 261 382 4 8 16 29 27 45 11 17 24 39 30 50 6 11
26 47 45 80 69 124 188 368 235 485 12 30 28 69 35 85 7 17 21 50 30 75 9 25
23 60 31 78 8 18 14 39 14 47 0 8 6 29 14 47 22 54 81 255 120 413 31 128 65
322 90 515 21 155 38 507 30 601 -4 42 -4 88 -1 102 4 14 31 43 64 68 221 165
459 405 641 646 79 105 81 136 5 99 -62 -30 -144 -62 -198 -76 -16 -4 -41 -12
-55 -17 -14 -6 -50 -17 -80 -26 -30 -8 -80 -22 -111 -31 -31 -9 -67 -16 -82
-16 -14 0 -38 -5 -53 -10 -15 -6 -61 -15 -101 -20 -39 -5 -84 -12 -100 -16
l-27 -7 32 31 c18 18 36 32 40 32 5 0 17 8 28 18 10 9 42 35 69 56 64 51 170
157 221 221 21 27 49 61 62 75 12 14 22 28 22 31 0 4 15 29 33 56 17 26 52 89
76 138 24 50 49 101 56 115 7 14 16 40 20 58 6 28 4 32 -14 32 -11 0 -22 -4
-26 -10 -5 -8 -232 -121 -312 -156 -77 -33 -100 -42 -138 -56 -68 -25 -109
-39 -140 -48 -16 -5 -43 -13 -60 -18 -84 -29 -256 -72 -286 -72 -15 1 -47 22
-89 61 -66 62 -203 170 -230 182 -8 4 -28 16 -45 27 -73 47 -248 127 -330 150
-16 4 -43 13 -60 18 -54 19 -129 35 -195 43 -79 10 -351 21 -365 14z"/>
</g>
</svg>
