<?xml version="1.0" standalone="no"?>
<!DOCTYPE svg PUBLIC "-//W3C//DTD SVG 20010904//EN"
 "http://www.w3.org/TR/2001/REC-SVG-20010904/DTD/svg10.dtd">
<svg version="1.0" xmlns="http://www.w3.org/2000/svg"
 width="900.000000pt" height="900.000000pt" viewBox="0 0 900.000000 900.000000"
 preserveAspectRatio="xMidYMid meet">
<metadata>
Created by potrace 1.10, written by Peter Selinger 2001-2011
</metadata>
<g transform="translate(0.000000,900.000000) scale(0.100000,-0.100000)"
fill="#000000" stroke="none">
<path d="M2405 8220 c-114 -24 -286 -85 -324 -114 -15 -12 -49 -32 -71 -42
-31 -15 -137 -101 -190 -154 -54 -54 -140 -160 -153 -190 -4 -8 -16 -28 -27
-45 -11 -16 -24 -39 -29 -50 -44 -99 -61 -139 -61 -151 0 -7 -6 -28 -14 -46
-59 -140 -59 -486 0 -626 8 -18 14 -39 14 -46 0 -12 17 -52 61 -151 5 -11 18
-33 29 -50 11 -16 23 -37 27 -45 13 -30 99 -136 153 -190 54 -54 160 -140 190
-153 8 -4 29 -16 45 -27 17 -11 39 -24 50 -29 11 -5 46 -20 78 -34 l57 -26 0
-1561 0 -1561 -57 -26 c-32 -14 -67 -29 -78 -34 -11 -5 -33 -18 -50 -29 -16
-11 -37 -23 -45 -27 -30 -13 -136 -99 -190 -153 -54 -54 -140 -160 -153 -190
-4 -8 -16 -28 -27 -45 -11 -16 -24 -39 -29 -50 -44 -99 -61 -139 -61 -151 0
-7 -6 -28 -14 -46 -59 -140 -59 -486 0 -626 8 -18 14 -39 14 -46 0 -12 17 -52
61 -151 5 -11 18 -33 29 -50 11 -16 23 -37 27 -45 13 -30 99 -136 153 -190 54
-54 160 -140 190 -153 8 -4 29 -16 45 -27 17 -11 39 -24 50 -29 99 -44 139
-61 151 -61 7 0 28 -6 46 -14 140 -59 486 -59 626 0 18 8 39 14 46 14 12 0 52
17 151 61 11 5 34 18 50 29 17 11 37 23 45 27 30 13 136 99 190 153 53 53 139
159 154 190 10 22 30 56 42 71 12 16 65 144 84 203 66 204 66 458 0 662 -19
59 -72 187 -84 203 -12 15 -32 49 -42 71 -15 31 -101 137 -154 190 -54 54
-160 140 -190 153 -8 4 -28 16 -45 26 -30 20 -76 43 -147 74 l-38 17 0 253 c0
276 6 312 67 410 91 149 336 311 698 462 19 8 50 21 68 29 17 7 52 21 77 31
25 9 56 22 70 27 14 6 36 14 50 18 14 5 50 18 80 30 30 12 69 25 85 30 17 5
55 18 85 30 30 12 69 25 85 30 17 5 55 18 85 30 30 12 69 25 85 30 46 13 158
53 213 76 18 8 40 14 50 14 9 0 26 7 36 15 11 8 28 15 38 15 17 0 65 18 121
46 16 8 35 14 42 14 7 0 26 6 42 14 15 8 48 22 73 31 156 59 449 197 575 270
33 19 69 39 80 45 123 66 350 238 468 355 77 77 221 253 240 295 4 8 16 29 26
45 44 69 108 211 135 300 9 28 24 76 34 108 l18 59 69 30 c99 42 107 46 140
68 17 11 37 23 45 27 30 13 136 99 190 153 54 54 140 160 153 190 4 8 16 29
27 45 11 17 24 39 29 50 44 99 61 139 61 151 0 7 6 28 14 46 46 110 60 360 27
515 -25 122 -84 291 -115 332 -12 15 -32 49 -42 71 -15 31 -101 137 -154 190
-54 54 -160 140 -190 153 -8 4 -28 16 -45 27 -16 11 -39 24 -50 29 -99 44
-139 61 -151 61 -7 0 -28 6 -46 14 -110 46 -360 60 -515 27 -122 -25 -291 -84
-332 -115 -15 -12 -49 -32 -71 -42 -31 -15 -137 -101 -190 -154 -54 -54 -140
-160 -153 -190 -4 -8 -16 -28 -27 -45 -11 -16 -24 -39 -29 -50 -44 -99 -61
-139 -61 -151 0 -7 -6 -28 -14 -46 -46 -110 -60 -360 -27 -515 25 -122 84
-291 115 -332 12 -15 32 -49 42 -71 15 -31 101 -137 154 -190 54 -54 160 -140
190 -153 8 -4 29 -16 45 -27 17 -10 51 -29 78 -41 55 -25 59 -43 22 -104 -14
-22 -28 -47 -32 -55 -14 -32 -94 -128 -155 -186 -74 -71 -221 -183 -283 -214
-11 -6 -33 -19 -50 -30 -48 -31 -322 -165 -420 -205 -49 -20 -99 -41 -109 -47
-11 -6 -31 -14 -45 -18 -14 -5 -51 -18 -81 -30 -91 -35 -132 -50 -205 -75 -38
-13 -95 -34 -125 -45 -30 -12 -69 -25 -86 -30 -18 -4 -37 -11 -44 -15 -7 -4
-26 -11 -44 -15 -17 -5 -56 -18 -86 -30 -30 -12 -68 -25 -85 -30 -16 -5 -55
-18 -85 -30 -30 -12 -68 -26 -85 -30 -29 -8 -54 -18 -165 -60 -30 -12 -67 -25
-81 -30 -14 -4 -34 -12 -45 -18 -10 -5 -39 -18 -64 -27 -87 -34 -187 -79 -325
-147 -139 -69 -157 -79 -178 -97 -9 -7 -21 -10 -27 -6 -7 4 -10 249 -10 766
l0 760 58 26 c31 14 66 29 77 34 11 5 34 18 50 29 17 11 37 23 45 27 30 13
136 99 190 153 53 53 139 159 154 190 10 22 30 56 42 71 12 16 65 144 84 203
66 204 66 458 0 662 -19 59 -72 187 -84 203 -12 15 -32 49 -42 71 -15 31 -101
137 -154 190 -54 54 -160 140 -190 153 -8 4 -28 16 -45 27 -32 21 -41 25 -120
60 -196 85 -454 113 -650 70z m304 -751 c167 -52 271 -188 271 -354 0 -202
-163 -365 -366 -365 -245 0 -422 242 -347 473 39 122 120 202 248 245 42 14
151 14 194 1z m3750 0 c166 -52 271 -189 271 -354 0 -201 -164 -365 -365 -365
-202 0 -365 163 -365 365 0 201 156 360 359 364 36 0 81 -4 100 -10z m-3750
-5250 c129 -40 215 -123 254 -246 75 -231 -103 -473 -347 -473 -246 0 -424
241 -349 473 39 122 120 202 248 245 42 14 151 14 194 1z"/>
</g>
</svg>
