<?xml version="1.0" standalone="no"?>
<!DOCTYPE svg PUBLIC "-//W3C//DTD SVG 20010904//EN"
 "http://www.w3.org/TR/2001/REC-SVG-20010904/DTD/svg10.dtd">
<svg version="1.0" xmlns="http://www.w3.org/2000/svg"
 width="206.000000pt" height="166.000000pt" viewBox="0 0 206.000000 166.000000"
 preserveAspectRatio="xMidYMid meet">
<metadata>
Created by potrace 1.10, written by Peter Selinger 2001-2011
</metadata>
<g transform="translate(0.000000,166.000000) scale(0.050000,-0.050000)"
fill="#000000" stroke="none">
<path d="M701 2956 c-276 -106 -492 -545 -341 -696 93 -93 220 -20 220 126 0
261 138 353 531 354 358 0 448 58 338 216 -46 65 -579 65 -748 0z"/>
<path d="M1853 2963 c-48 -53 -42 -154 11 -192 38 -26 131 -31 606 -31 837 0
829 6 830 -685 0 -478 9 -515 130 -515 125 0 133 35 126 546 -8 610 -73 755
-390 874 -158 59 -1260 62 -1313 3z"/>
<path d="M800 2540 c-47 -47 -52 -116 -12 -171 26 -35 62 -40 357 -49 l329
-10 -242 -214 c-436 -386 -472 -424 -472 -482 0 -128 26 -134 590 -134 561 0
590 6 590 130 0 115 -48 130 -405 130 l-325 0 100 85 c464 395 630 560 630
626 0 123 -29 129 -590 129 -483 0 -512 -2 -550 -40z"/>
<path d="M2104 2516 c-31 -31 -31 -101 0 -132 17 -17 151 -24 476 -24 475 0
500 5 500 90 0 85 -25 90 -500 90 -325 0 -459 -7 -476 -24z"/>
<path d="M2133 2183 c-30 -33 -33 -108 -28 -764 l5 -727 51 -29 c150 -85 208
23 194 360 l-9 241 312 -312 c328 -328 364 -350 442 -272 85 85 61 126 -270
460 l-311 312 309 257 c317 264 345 300 307 383 -58 129 -147 94 -466 -182
-140 -121 -270 -231 -288 -245 -33 -24 -34 -10 -26 220 8 230 6 248 -34 290
-52 55 -142 59 -188 8z m237 -736 c0 -65 -50 -119 -75 -80 -8 13 -15 62 -15
110 0 87 1 87 45 58 29 -20 45 -50 45 -88z"/>
<path d="M360 1900 c-37 -37 -40 -67 -40 -350 0 -341 16 -390 130 -390 114 0
130 49 130 390 0 341 -16 390 -130 390 -27 0 -68 -18 -90 -40z"/>
<path d="M764 1236 c-31 -31 -31 -101 0 -132 33 -33 519 -33 552 0 13 13 24
43 24 66 0 23 -11 53 -24 66 -33 33 -519 33 -552 0z"/>
<path d="M1484 1236 c-31 -31 -31 -101 0 -132 33 -33 439 -33 472 0 31 31 31
101 0 132 -33 33 -439 33 -472 0z"/>
<path d="M3340 1220 c-34 -34 -40 -67 -40 -216 0 -325 -110 -443 -414 -444
-152 0 -166 -4 -205 -53 -222 -283 489 -282 731 1 199 232 212 752 18 752 -27
0 -68 -18 -90 -40z"/>
<path d="M373 843 c-106 -117 93 -410 343 -503 98 -37 157 -40 815 -40 783 0
789 1 789 130 0 129 -7 130 -781 130 -782 0 -821 6 -896 144 -92 170 -195 223
-270 139z"/>
<path d="M744 856 c-68 -68 1 -156 123 -156 94 0 133 27 133 90 0 65 -39 90
-140 90 -51 0 -103 -11 -116 -24z"/>
<path d="M1124 856 c-31 -31 -31 -101 0 -132 34 -34 798 -34 832 0 31 31 31
101 0 132 -34 34 -798 34 -832 0z"/>
</g>
</svg>
