<?xml version="1.0" encoding="UTF-8"?>
<svg version="1.1" xmlns="http://www.w3.org/2000/svg" width="928" height="507">
    <path d="M0 0 C9.51397621 0.0023528 19.02795072 0.00258572 28.54192714 0.00148655 C29.22808918 0.00141016 29.91425122 0.00133378 30.62120605 0.00125508 C33.40999505 0.0009435 36.19878404 0.00062507 38.98757303 0.00029531 C64.98766662 -0.00274175 90.98775673 -0.0000287 116.98784977 0.00539221 C139.77720733 0.01010789 162.56655928 0.00973377 185.35591678 0.00493122 C211.24400021 -0.00050673 237.13208055 -0.00249929 263.02016447 0.00054348 C265.81848518 0.00086393 268.61680589 0.00117679 271.4151266 0.00148655 C272.4478631 0.00160516 272.4478631 0.00160516 273.50146296 0.00172618 C283.60540741 0.00283282 293.70934899 0.00155875 303.81329326 -0.00099301 C338.67262084 -0.00885079 373.53167361 0.01899819 408.39082889 0.13530231 C410.3282001 0.14175626 410.3282001 0.14175626 412.30471013 0.14834059 C429.53095329 0.2073189 446.7568553 0.29169622 463.98282544 0.40771771 C468.96005075 0.44092277 473.93724421 0.46789172 478.91453497 0.48904849 C484.71258926 0.51418003 490.51038022 0.5535838 496.30827111 0.60366354 C498.41148155 0.61966357 500.51473422 0.63101378 502.61799708 0.63697473 C522.42933136 0.69943696 541.70017796 2.21437392 560.39082889 9.13530231 C561.40918826 9.50397419 562.42754764 9.87264606 563.47676639 10.25248981 C589.39820325 20.32918779 611.50177208 38.70575421 626.39082889 62.13530231 C627.45043826 63.778857 627.45043826 63.778857 628.53145389 65.45561481 C640.67290416 85.42876392 646.5513773 108.84026948 646.53127078 132.10583759 C646.53572747 133.73144478 646.53572747 133.73144478 646.54027418 135.38989253 C646.54892488 139.01052205 646.55046638 142.63111836 646.5519617 146.25175739 C646.55659257 148.8526187 646.56161759 151.45347933 646.56700687 154.05433918 C646.58055223 161.11483166 646.58660953 168.17531843 646.59101753 175.23582173 C646.5937875 179.65291042 646.59802631 184.06999694 646.6025217 188.48708416 C646.61471151 200.73983919 646.62501003 212.9925925 646.62839679 225.24535347 C646.62861636 226.02864502 646.62883592 226.81193658 646.62906214 227.61896424 C646.62928042 228.40403683 646.6294987 229.18910941 646.62972359 229.99797208 C646.63016704 231.58858932 646.6306136 233.17920656 646.63106326 234.7698238 C646.63128469 235.55881003 646.63150612 236.34779626 646.63173426 237.16069117 C646.63567547 249.92199633 646.65311004 262.68324415 646.67642279 275.44452719 C646.70021745 288.57674858 646.71260239 301.7089413 646.71376471 314.84118456 C646.71467715 322.20203548 646.72031953 329.56281174 646.73858432 336.92364193 C646.75572863 343.85694325 646.75717771 350.79010158 646.74844531 357.723418 C646.74767957 360.25522563 646.75195588 362.78704111 646.76190357 365.31882931 C646.89928133 402.49090731 638.82184612 437.57299641 612.39082889 465.13530231 C611.42480488 466.31655447 610.46577599 467.5035831 609.51582889 468.69780231 C605.41445349 473.51295298 600.37751524 477.28508454 595.39082889 481.13530231 C594.64317264 481.72182575 593.89551639 482.30834919 593.12520389 482.91264606 C582.3501355 490.91859723 569.90464493 497.27421815 557.20332889 501.57280231 C556.55299686 501.79524616 555.90266483 502.01769001 555.23262576 502.24687458 C552.96819753 502.96179792 550.69292348 503.55141093 548.39082889 504.13530231 C547.40917813 504.38777621 546.42752738 504.6402501 545.41612963 504.90037472 C532.38736719 507.79260883 519.39298655 507.56450042 506.10115203 507.52690634 C502.52271284 507.52013769 498.9443161 507.53089186 495.36588625 507.53930218 C489.10720781 507.55162459 482.84860439 507.55290075 476.58991794 507.54675175 C467.28256621 507.53763211 457.97528343 507.54571561 448.66793697 507.55704299 C432.04042462 507.57668097 415.41294349 507.57906278 398.78542231 507.57384778 C384.23166352 507.56928562 369.67791706 507.569896 355.12415866 507.57568813 C353.16980455 507.57644501 351.21545044 507.57720099 349.26109632 507.57795608 C346.31583071 507.57910131 343.37056511 507.58025119 340.4252995 507.58141532 C313.05252219 507.5921161 285.67974897 507.59684995 258.3069704 507.58894516 C257.27572884 507.58864798 256.24448728 507.58835081 255.18199598 507.58804463 C246.80830625 507.58559585 238.43461656 507.58298419 230.06092688 507.5803605 C197.40492416 507.5702599 164.74897287 507.57861164 132.09297733 507.60185505 C95.37695845 507.62794615 58.66097053 507.64077058 21.94494204 507.6336673 C18.02754876 507.63295127 14.11015547 507.63227688 10.19276218 507.63162685 C9.22824931 507.63145704 8.26373644 507.63128723 7.2699959 507.63111228 C-7.26883721 507.62881245 -21.80764152 507.63677119 -36.34646817 507.64991833 C-52.8877379 507.66484984 -69.42894026 507.66564564 -85.97020857 507.64784741 C-95.21765368 507.63830597 -104.4649415 507.63967503 -113.712376 507.6570821 C-119.90142985 507.66761313 -126.09036457 507.66341319 -132.27940679 507.64760207 C-135.79770912 507.63901522 -139.31570456 507.63643359 -142.8339905 507.65187138 C-176.32507696 507.76847982 -208.87247581 501.14853779 -234.60917111 478.13530231 C-235.41225705 477.45081013 -236.21534299 476.76631794 -237.04276486 476.06108356 C-261.96266871 454.40681454 -277.33703872 425.98258546 -281.60917111 393.13530231 C-281.86386474 389.17766984 -281.88848354 385.23780476 -281.87659665 381.27287555 C-281.88112776 380.14150622 -281.88565887 379.01013688 -281.89032729 377.84448362 C-281.90289874 374.08656291 -281.9013556 370.32878848 -281.89969845 366.57084919 C-281.90460665 363.86264262 -281.91243935 361.15444604 -281.92005368 358.44624592 C-281.93659567 351.87184698 -281.94216018 345.29748394 -281.94327844 338.72306592 C-281.94423237 333.37168812 -281.94835985 328.02032203 -281.95467969 322.66894794 C-281.97227536 307.45732013 -281.98152145 292.24572042 -281.98001874 277.03408236 C-281.97993883 276.2157369 -281.97985891 275.39739144 -281.97977658 274.55424763 C-281.97969482 273.73488895 -281.97961306 272.91553027 -281.97952882 272.07134254 C-281.97871692 258.80978901 -281.99783476 245.54834933 -282.02605331 232.2868287 C-282.05487817 218.63127431 -282.06858828 204.97577526 -282.06686576 191.32018972 C-282.06620505 183.66927313 -282.07155595 176.01847583 -282.09322186 168.36758686 C-282.11156086 161.85032825 -282.11567813 155.33324296 -282.10220302 148.81596953 C-282.09573587 145.49987597 -282.09755935 142.18438076 -282.11290951 138.86827732 C-282.27819442 100.65792765 -271.65558322 67.07548979 -244.73417111 39.23295856 C-215.5616935 9.92339224 -179.37013 0.80898765 -139.09086056 0.45610309 C-137.08194512 0.43160469 -135.07302981 0.40708725 -133.0641238 0.38182621 C-88.71398402 -0.16456287 -44.35249007 -0.01105841 0 0 Z M-11.69889529 60.52557708 C-18.49477206 60.556945 -25.29065176 60.58750667 -32.08653517 60.61739964 C-42.89674268 60.66502884 -53.70692774 60.71578104 -64.51709433 60.77198023 C-69.51236724 60.79794267 -74.50763768 60.82286963 -79.50293179 60.84441067 C-91.27716804 60.89608143 -103.05054717 60.98161783 -114.82422753 61.10737253 C-117.72896259 61.13650368 -120.63370959 61.15999734 -123.53850003 61.18289829 C-128.53779579 61.22439622 -133.53644588 61.28766014 -138.53531213 61.36490143 C-140.42000551 61.39118407 -142.30479945 61.41119348 -144.18963142 61.42416728 C-165.52203136 61.58252702 -184.40587233 65.93413297 -199.99588986 81.46342731 C-201.28946408 82.78600544 -201.28946408 82.78600544 -202.60917111 84.13530231 C-203.27561642 84.76952106 -203.94206174 85.40373981 -204.62870236 86.05717731 C-218.26801159 99.97358312 -221.77346938 120.03102395 -221.74288388 138.69027973 C-221.74514944 139.71714683 -221.74741499 140.74401392 -221.7497492 141.80199821 C-221.75605134 145.22390221 -221.75526228 148.64576622 -221.75443478 152.06767536 C-221.75742865 154.52901519 -221.76083171 156.99035455 -221.7646124 159.4516933 C-221.77251845 165.4329281 -221.77566607 171.41414732 -221.77622477 177.39538589 C-221.77670121 182.26156665 -221.77876232 187.12774418 -221.7819254 191.99392391 C-221.79072528 205.81489009 -221.79534587 219.63584853 -221.79459492 233.45681754 C-221.79453499 234.57275173 -221.79453499 234.57275173 -221.79447385 235.71123005 C-221.79443296 236.45610311 -221.79439208 237.20097617 -221.79434996 237.96842115 C-221.79394379 250.03140938 -221.80350787 262.09436636 -221.81761221 274.15734556 C-221.83200703 286.5674965 -221.83888068 298.97763222 -221.83801844 311.3877917 C-221.83768751 318.34547335 -221.84038836 325.30312223 -221.85119649 332.26079632 C-221.8613029 338.80830452 -221.86093452 345.35575563 -221.85367985 351.90327144 C-221.85263799 354.29849736 -221.85497308 356.69372765 -221.86104031 359.08894611 C-221.92316608 385.32631816 -219.21200329 407.74136979 -200.20292111 427.66655231 C-184.31251702 442.7911538 -164.29022992 447.30546957 -143.0303566 447.26393677 C-141.316658 447.26656632 -141.316658 447.26656632 -139.56833922 447.269249 C-135.73601587 447.27390485 -131.90373053 447.27144454 -128.07140561 447.26901508 C-125.29762415 447.27033164 -122.52384465 447.27314415 -119.75006427 447.2758804 C-113.7170692 447.28102767 -107.68408215 447.28245277 -101.6510851 447.28142429 C-92.67952046 447.2798986 -83.7079647 447.28406283 -74.73640179 447.28929892 C-57.78001819 447.29896874 -40.82363761 447.30178302 -23.86725157 447.30235597 C-10.77214207 447.30281556 2.32296625 447.30487414 15.41807536 447.3080566 C19.18785673 447.30895415 22.95763811 447.30984396 26.72741948 447.31073148 C27.66460649 447.31095253 28.60179349 447.31117357 29.56738011 447.31140132 C55.92810401 447.31755536 82.2888275 447.3215019 108.64955215 447.32105804 C109.6433699 447.32104246 110.63718765 447.32102688 111.6611211 447.32101083 C116.69816985 447.32092773 121.7352186 447.32082869 126.77226735 447.32072613 C127.77263792 447.32070618 128.77300849 447.32068624 129.80369333 447.32066569 C131.82668648 447.32062525 133.84967963 447.32058345 135.87267279 447.32054029 C167.34593322 447.31992756 198.81918287 447.32743377 230.29244022 447.34111286 C265.65510937 447.35647607 301.01777145 447.36507894 336.38044415 447.36414964 C340.1517973 447.36407501 343.92315044 447.3640263 347.69450359 447.36399532 C349.08740036 447.36397784 349.08740036 447.36397784 350.50843646 447.36396 C365.44666954 447.36392924 380.38489327 447.37031288 395.32312357 447.37892759 C410.33865254 447.38740772 425.35416783 447.38839118 440.36969787 447.38181826 C449.28728216 447.37812504 458.20482486 447.37994819 467.12240474 447.3897606 C473.08416645 447.39576568 479.04589808 447.39445927 485.00765842 447.38729011 C488.40114474 447.38341305 491.79448523 447.38373196 495.18797619 447.39074746 C522.01759894 447.44253464 545.50141522 445.60315965 565.82832889 426.26030231 C583.86967542 407.12464459 585.84526793 385.83544595 585.79488162 360.86259723 C585.80059067 358.30538901 585.80755699 355.74818333 585.81567935 353.19098163 C585.8317139 346.990342 585.83372315 340.7898397 585.82846645 334.58918568 C585.82440892 329.54385629 585.82588699 324.49855671 585.83121471 319.45322872 C585.83196313 318.73246501 585.83271155 318.0117013 585.83348265 317.26909627 C585.83501429 315.8043939 585.83655264 314.33969155 585.83809762 312.8749892 C585.8517955 299.16852249 585.84640434 285.46211302 585.83491241 271.75564764 C585.82498521 259.24803099 585.83791662 246.74056237 585.8618466 234.23296854 C585.88629767 221.35484305 585.89583062 208.47678634 585.88919387 195.59863812 C585.88571466 188.38270381 585.88784722 181.16688322 585.9054449 173.9509666 C585.92179757 167.16200155 585.91689229 160.37336255 585.89813976 153.58438946 C585.89447023 151.10292369 585.89751413 148.62143679 585.90802554 146.13999058 C586.0059369 121.10051337 582.26219846 100.40949852 564.08223514 81.76811481 C550.09161299 68.47142752 532.71991164 62.07248307 513.52286319 61.93890644 C512.75961539 61.92989923 511.9963676 61.92089202 511.20999108 61.91161186 C508.66523466 61.88279624 506.12046708 61.86067833 503.57564334 61.83867145 C501.74303815 61.81955494 499.91043663 61.80008225 498.0778387 61.78028179 C493.08307899 61.72772671 488.08827904 61.68145379 483.09344439 61.63665915 C479.92114358 61.60777219 476.7488633 61.57720653 473.57658366 61.54608608 C424.3841601 61.06423317 375.19061504 60.80333891 325.99641113 60.58785797 C321.35263499 60.56740349 316.70886101 60.54648144 312.06508688 60.52557708 C208.75627443 60.06110249 105.45776239 59.99409302 -11.69889529 60.52557708 Z " fill="#EDC017" transform="translate(281.6091711111367,-0.13530231267213821)"/>
    <path d="M0 0 C0.89133863 -0.00507454 1.78267725 -0.01014909 2.70102614 -0.0153774 C3.68134741 -0.01587516 4.66166869 -0.01637292 5.67169666 -0.01688576 C6.71244384 -0.02126801 7.75319102 -0.02565027 8.82547599 -0.03016531 C12.33043647 -0.0435731 15.8353718 -0.04973678 19.34035206 -0.0558567 C21.84682295 -0.06375647 24.35329269 -0.07202534 26.85976124 -0.08063698 C34.39739795 -0.10461651 41.93503344 -0.11979319 49.47269627 -0.13269705 C51.60375167 -0.1364103 53.73480642 -0.14038347 55.86586118 -0.14444971 C69.11230141 -0.16969934 82.35874272 -0.19174283 95.60520172 -0.20417786 C98.67398234 -0.20710737 101.74276293 -0.21006905 104.81154346 -0.21308327 C105.95558525 -0.21420234 105.95558525 -0.21420234 107.12273899 -0.21534403 C119.45317585 -0.22797323 131.7834677 -0.26116208 144.11383691 -0.3028851 C156.78822916 -0.34541833 169.46254748 -0.36888642 182.13701087 -0.37409842 C189.24695545 -0.37750084 196.35667394 -0.38911602 203.46654797 -0.42220116 C210.16511461 -0.45332151 216.86322051 -0.458555 223.56187153 -0.4468174 C226.01109312 -0.44659753 228.46033347 -0.45483019 230.90949154 -0.47247124 C253.42555977 -0.62572651 270.336649 2.77268561 287.31032276 18.69560814 C300.38019987 32.26483271 305.11774061 47.78215662 305.09572315 66.20049095 C304.76245255 83.63012843 297.91542619 97.15621468 286.04469776 109.85185814 C269.89641998 125.33832126 251.71206825 127.58763627 230.3796587 127.56938744 C228.23997911 127.57841594 226.10030469 127.58874581 223.96063709 127.60027122 C218.18259251 127.62773937 212.40464634 127.63711189 206.62654495 127.6431253 C200.57670127 127.65253553 194.52693034 127.67874104 188.47713184 127.70313072 C177.03464694 127.7467266 165.59217621 127.77531602 154.14963365 127.79845411 C141.11691314 127.82554285 128.08426606 127.86945209 115.05159807 127.91474283 C88.255067 128.00749012 61.4585129 128.07921622 34.66188526 128.13701439 C34.66188526 129.45701439 34.66188526 130.77701439 34.66188526 132.13701439 C35.93079294 132.13755916 37.19970062 132.13810392 38.50706005 132.1386652 C68.64893158 132.15271855 98.79064977 132.19251118 128.932435 132.26387001 C132.64482294 132.27263644 136.35721135 132.28118631 140.06960011 132.28960228 C140.80864946 132.29128134 141.54769882 132.2929604 142.30914362 132.29469035 C154.265469 132.3213381 166.22174645 132.33045383 178.17809848 132.33305582 C190.45240839 132.33611855 202.72657999 132.3581022 215.00082743 132.39753896 C222.57076303 132.42126792 230.1404223 132.43035347 237.71038993 132.4205275 C243.52147867 132.41456811 249.33224766 132.43497252 255.14325047 132.46507454 C257.52239557 132.47330545 259.90158776 132.47306062 262.28072834 132.4636116 C265.53580751 132.45196557 268.78934154 132.47114687 272.04430103 132.49777794 C272.9801278 132.48710468 273.91595456 132.47643142 274.88013971 132.46543473 C283.13925019 132.59101985 291.13769577 135.77997897 297.27907276 141.46513939 C303.74827504 149.28666079 305.78813028 157.45659067 305.18532276 167.35576439 C304.43836727 172.75168164 302.72092011 176.67663397 299.66188526 181.13701439 C298.98126026 182.20951439 298.30063526 183.28201439 297.59938526 184.38701439 C291.23165163 191.11993249 283.59381059 193.41848931 274.61473775 193.82027555 C269.05176011 193.93883655 263.49373692 193.91936437 257.92995167 193.8816433 C255.41890327 193.8865044 252.90785874 193.89394816 250.39682484 193.90376854 C244.30549864 193.92057993 238.21477672 193.90962039 232.12349321 193.88524266 C225.01557459 193.8578669 217.90776685 193.8612904 210.7998089 193.86550932 C198.10757822 193.87187684 185.41557262 193.84862651 172.7234087 193.80937767 C160.43590405 193.77139069 148.14866318 193.75719987 135.86110401 193.76836205 C122.45154415 193.78050759 109.04209999 193.78006762 95.63254964 193.75739038 C94.19959315 193.75497605 92.76663665 193.75256408 91.33368015 193.7501545 C90.62881364 193.74894742 89.92394712 193.74774034 89.19772101 193.74649668 C84.25535895 193.73877218 79.31304025 193.73951249 74.37067509 193.74332619 C67.70398371 193.74804085 61.03767629 193.7307508 54.37104321 193.6992054 C51.93229086 193.69076153 49.49350431 193.68899026 47.05474377 193.6945858 C26.03890347 193.73546953 8.82221662 191.53678502 -7.06077099 176.40654564 C-7.81229443 175.65760033 -8.56381786 174.90865501 -9.33811474 174.13701439 C-9.97620068 173.52213158 -10.61428661 172.90724876 -11.27170849 172.27373314 C-23.08195872 159.99002077 -26.84730563 143.91278337 -26.76023388 127.40923119 C-26.30928387 110.00551785 -19.54211424 96.40424705 -7.33811474 84.13701439 C-6.74643505 83.51053001 -6.15475536 82.88404564 -5.54514599 82.23857689 C-1.34257541 78.13805548 3.41153301 75.47452378 8.59938526 72.82451439 C9.25559864 72.48661888 9.91181202 72.14872337 10.58791065 71.80058861 C18.50168256 67.93901986 26.2840343 66.83797929 35.02029896 66.85854149 C35.9182032 66.85274909 36.81610743 66.84695668 37.74122089 66.84098876 C40.72596202 66.82409154 43.71054757 66.82112115 46.69533253 66.81816673 C48.84441979 66.80886146 50.99350346 66.7986919 53.14258289 66.78772545 C58.96003861 66.76047901 64.77747018 66.74529188 70.59497285 66.73229742 C76.68085794 66.71664346 82.76669389 66.68986045 88.85254383 66.66426659 C100.36949816 66.61751893 111.88646177 66.58075537 123.40346235 66.54759371 C136.51832501 66.50934399 149.63313827 66.45994127 162.74795926 66.40960956 C189.71923129 66.30634938 216.69053507 66.21706973 243.66188526 66.13701439 C243.66188526 64.48701439 243.66188526 62.83701439 243.66188526 61.13701439 C242.39297758 61.13646962 241.1240699 61.13592485 239.81671047 61.13536358 C209.67483894 61.12131023 179.53312075 61.08151759 149.39133552 61.01015877 C145.67894758 61.00139234 141.96655917 60.99284247 138.25417042 60.9844265 C137.51512106 60.98274744 136.7760717 60.98106837 136.01462691 60.97933843 C124.05830152 60.95269068 112.10202408 60.94357495 100.14567204 60.94097296 C87.87136214 60.93791022 75.59719053 60.91592657 63.32294309 60.87648982 C55.7530075 60.85276086 48.18334823 60.8436753 40.6133806 60.85350128 C34.80229186 60.85946067 28.99152287 60.83905626 23.18052006 60.80895424 C20.80137495 60.80072333 18.42218276 60.80096816 16.04304218 60.81041718 C12.78796301 60.82206321 9.53442898 60.80288191 6.27946949 60.77625084 C5.34364273 60.7869241 4.40781596 60.79759736 3.44363081 60.80859405 C-4.81547966 60.68300893 -12.81392525 57.4940498 -18.95530224 51.80888939 C-25.42407825 43.98788337 -27.4603439 35.82020383 -26.86545849 25.92217064 C-26.11661626 20.5471475 -24.36491237 16.59337826 -21.33811474 12.13701439 C-20.78123974 11.22951439 -20.22436474 10.32201439 -19.65061474 9.38701439 C-14.34982829 4.22949244 -7.50905003 0.02270214 0 0 Z " fill="#EEC017" transform="translate(130.33811473846436,105.86298561096191)"/>
    <path d="M0 0 C1.43305792 -0.00576172 1.43305792 -0.00576172 2.8950665 -0.01163983 C3.9365921 -0.01077335 4.9781177 -0.00990687 6.05120468 -0.00901413 C7.16393651 -0.01198525 8.27666833 -0.01495637 9.42311931 -0.01801753 C13.1593238 -0.02670328 16.89549625 -0.02821268 20.63171005 -0.02970505 C23.30746741 -0.03433328 25.98322185 -0.03933742 28.65897751 -0.04475021 C35.93384543 -0.05831988 43.20870784 -0.06435606 50.48358631 -0.06876087 C55.02772068 -0.07152547 59.57185293 -0.07576321 64.11598587 -0.08026505 C76.70233781 -0.09245567 89.28868806 -0.10275556 101.87504578 -0.10614014 C102.68026398 -0.1063597 103.48548219 -0.10657927 104.31510095 -0.10680549 C105.12222212 -0.10702377 105.92934329 -0.10724204 106.76092267 -0.10746694 C108.39639998 -0.1079104 110.03187728 -0.10835696 111.66735458 -0.10880661 C112.88422888 -0.10913875 112.88422888 -0.10913875 114.1256865 -0.10947761 C127.26899571 -0.11342511 140.41224946 -0.1308786 153.55553725 -0.15416613 C167.05599936 -0.17789306 180.55643366 -0.19034259 194.05691695 -0.19150805 C201.63435116 -0.19242403 209.21171308 -0.19815695 216.78912735 -0.21632767 C223.24169983 -0.23174673 229.69417768 -0.23683847 236.14676508 -0.22858956 C239.43702952 -0.22468948 242.72706416 -0.22722159 246.017313 -0.23964691 C249.58956484 -0.25234529 253.16132924 -0.24650048 256.73357773 -0.23606491 C258.2824818 -0.24814952 258.2824818 -0.24814952 259.86267686 -0.26047826 C270.51023924 -0.18782806 278.45113254 2.64539243 286.14635849 10.13142776 C292.40906047 17.88742608 294.00374885 26.34058296 293.14635849 36.13142776 C291.72408033 44.04446626 287.39933044 50.69729914 281.15807724 55.73689651 C273.78170782 60.62105569 266.8202831 61.42682177 258.17199326 61.35847855 C257.19561401 61.3587706 256.21923477 61.35906265 255.21326828 61.35936356 C252.00467487 61.35797668 248.7963173 61.34244568 245.58776474 61.32674026 C243.35574597 61.32300785 241.12372556 61.32016196 238.89170456 61.31816483 C233.03092512 61.31054636 227.17024557 61.29091316 221.30950546 61.26875687 C215.32349626 61.24825996 209.33747084 61.23915489 203.35143661 61.22908401 C191.6163668 61.20766562 179.88137097 61.17355122 168.14635849 61.13142776 C168.15524094 62.17188751 168.16412338 63.21234726 168.17327499 64.28433609 C168.2546282 74.12594848 168.31445168 83.96749197 168.35360718 93.80936527 C168.37441471 98.86827886 168.40260656 103.92691935 168.4481163 108.98567581 C168.49181899 113.87458007 168.5155469 118.76322288 168.52586746 123.65230751 C168.53321522 125.51049472 168.54756291 127.36866885 168.56927872 129.2267437 C168.72161191 142.81042327 168.18370577 153.93224154 158.30651474 164.25252151 C151.09276612 170.52704789 143.20406507 171.59273849 133.94713974 171.40486526 C125.33275836 170.7851256 118.85444747 166.48618478 113.14635849 160.13142776 C108.07141615 152.7897618 106.99188425 146.60894292 107.0328331 137.76106644 C107.03268707 136.93128281 107.03254105 136.10149918 107.03239059 135.24657059 C107.03308516 132.51415229 107.0408562 129.78180285 107.04870224 127.04939651 C107.05056804 125.15082206 107.05199118 123.25224713 107.05298996 121.35367203 C107.05680239 116.36421243 107.06662179 111.37478208 107.07769394 106.38533401 C107.08793546 101.290937 107.09249345 96.19653524 107.09753036 91.10213089 C107.10824521 81.11188368 107.12530633 71.12165816 107.14635849 61.13142776 C106.5792802 61.13511494 106.0122019 61.13880211 105.42793941 61.14260101 C91.58779486 61.23119126 77.74770042 61.29699723 63.90733242 61.33867645 C57.21402821 61.35924436 50.52094197 61.38775879 43.82775497 61.43318558 C37.36328055 61.47678338 30.89900308 61.50059457 24.43439293 61.51093674 C21.97334126 61.51830305 19.51229985 61.53268754 17.05133247 61.55434799 C13.59278426 61.5835663 10.13504041 61.58737595 6.67638779 61.58552933 C5.16478577 61.60710098 5.16478577 61.60710098 3.62264633 61.62910843 C-6.84102872 61.56901885 -15.39165593 58.54909285 -22.97473526 51.29158401 C-29.24926163 44.0778354 -30.31495224 36.18913434 -30.12707901 26.93220901 C-29.50733934 18.31782764 -25.20839852 11.83951675 -18.85364151 6.13142776 C-12.80101795 1.94753875 -7.38153077 0.01118627 0 0 Z " fill="#EDC017" transform="translate(514.8536415100098,240.86857223510742)"/>
    <path d="M0 0 C0.80405098 -0.00438225 1.60810197 -0.00876451 2.43651813 -0.01327956 C5.14013045 -0.02667092 7.84371016 -0.03284724 10.54734802 -0.03897095 C12.48228096 -0.04687179 14.41721242 -0.05514073 16.35214233 -0.06375122 C22.71594331 -0.08997836 29.07975089 -0.10528183 35.44358826 -0.11953735 C37.63471417 -0.12489718 39.82584004 -0.13027469 42.01696587 -0.13566971 C51.13328385 -0.15730147 60.24960007 -0.17603707 69.36593723 -0.1872921 C82.42666839 -0.20352303 95.48710164 -0.23667684 108.54772049 -0.29369295 C117.73257467 -0.33242028 126.91734927 -0.35192825 136.10228294 -0.35721266 C141.58675218 -0.36086291 147.07090374 -0.37284944 152.5552845 -0.4053154 C157.71900281 -0.4354441 162.88221202 -0.44169058 168.04599953 -0.42993164 C169.93657582 -0.42971129 171.82717607 -0.437984 173.71767044 -0.45558548 C191.91691355 -0.6157428 191.91691355 -0.6157428 200.18968201 5.15390015 C201.26218201 5.83452515 202.33468201 6.51515015 203.43968201 7.21640015 C209.3550461 12.69233719 212.41850597 20.26976389 212.85350037 28.20394897 C212.94054122 35.83034296 211.54194147 41.80786819 207.18968201 48.15390015 C206.50905701 49.22640015 205.82843201 50.29890015 205.12718201 51.40390015 C199.50645019 57.44324447 191.7648916 60.37928867 183.67516387 60.8371613 C179.37974893 60.95456459 175.09085358 60.93649265 170.79441833 60.89852905 C168.85652894 60.90339307 166.91864458 60.91083963 164.98077393 60.9206543 C159.74937056 60.93936466 154.5187226 60.92071563 149.28737855 60.89399004 C143.7983258 60.87125269 138.3093073 60.87958414 132.82022095 60.88348389 C123.60804493 60.88524599 114.39616433 60.86316491 105.18406677 60.82626343 C94.54680872 60.78389601 83.90998258 60.77691861 73.27265722 60.78938735 C63.01783114 60.80079029 52.76315651 60.78946739 42.50835228 60.76704025 C38.15329361 60.7577728 33.79832793 60.75598985 29.4432621 60.76021194 C24.31386781 60.76398917 19.18491094 60.74768301 14.05561638 60.71609116 C12.17755061 60.70763345 10.29944034 60.7058855 8.42136383 60.71147156 C-9.80774586 60.75745237 -9.80774586 60.75745237 -16.81031799 56.15390015 C-17.61984924 55.62409546 -18.42938049 55.09429077 -19.26344299 54.5484314 C-26.11787369 48.5135522 -30.09591928 42.01681239 -31.04859924 32.86483765 C-31.33799521 23.7564804 -28.91991343 16.25252852 -23.06031799 9.21640015 C-16.5117011 2.37401352 -9.32845881 0.00615131 0 0 Z " fill="#EEC017" transform="translate(332.81031799316406,351.8460998535156)"/>
    <path d="M0 0 C1.81675484 -0.01073296 1.81675484 -0.01073296 3.67021179 -0.02168274 C5.01458715 -0.02452299 6.35896278 -0.02723472 7.70333862 -0.02983093 C9.11773343 -0.03609684 10.53212658 -0.04274376 11.94651794 -0.04974365 C16.59445044 -0.0707767 21.24238322 -0.08114744 25.89035034 -0.09111023 C27.49210502 -0.0951585 29.09385953 -0.09927544 30.69561386 -0.10346031 C38.22358226 -0.12251275 45.75154086 -0.13674193 53.27952874 -0.14507228 C61.95892169 -0.154836 70.63805902 -0.18113252 79.31736195 -0.22157317 C86.03173475 -0.25178041 92.74603449 -0.26654564 99.4604739 -0.26985329 C103.46768276 -0.27219914 107.47461856 -0.28109813 111.4817543 -0.30631447 C115.25588186 -0.32968022 119.02955826 -0.33379466 122.80373955 -0.32355309 C124.83809664 -0.32282553 126.87243125 -0.3418582 128.9066925 -0.36161804 C139.382924 -0.3023837 146.68463609 1.98819036 154.40206909 9.15107727 C160.53645613 15.98042754 162.61215605 23.37143892 162.46456909 32.40107727 C161.54810609 41.73837427 157.21167032 49.04409648 150.19503784 55.14717102 C144.81227168 58.61094746 139.75645292 60.26854952 133.39007568 60.29434204 C131.57332085 60.305075 131.57332085 60.305075 129.71986389 60.31602478 C128.37548854 60.31886503 127.03111291 60.32157676 125.68673706 60.32417297 C124.27234226 60.33043889 122.8579491 60.3370858 121.44355774 60.34408569 C116.79562525 60.36511874 112.14769247 60.37548948 107.49972534 60.38545227 C105.89797066 60.38950054 104.29621615 60.39361748 102.69446182 60.39780235 C95.16649342 60.4168548 87.63853482 60.43108398 80.11054695 60.43941432 C71.43115399 60.44917804 62.75201666 60.47547456 54.07271373 60.51591522 C47.35834093 60.54612245 40.6440412 60.56088768 33.92960179 60.56419533 C29.92239293 60.56654118 25.91545712 60.57544017 21.90832138 60.60065651 C18.13419382 60.62402226 14.36051742 60.6281367 10.58633614 60.61789513 C8.55197904 60.61716757 6.51764443 60.63620025 4.48338318 60.65596008 C-5.99284832 60.59672574 -13.29456041 58.30615168 -21.01199341 51.14326477 C-27.14638044 44.3139145 -29.22208036 36.92290313 -29.07449341 27.89326477 C-28.1580304 18.55596777 -23.82159463 11.25024556 -16.80496216 5.14717102 C-11.422196 1.68339458 -6.36637723 0.02579252 0 0 Z " fill="#EEC017" transform="translate(650.8049621582031,104.85282897949219)"/>
    <path d="M0 0 C1.31190559 -0.01073296 1.31190559 -0.01073296 2.65031433 -0.02168274 C4.0856678 -0.02571609 4.0856678 -0.02571609 5.55001831 -0.02983093 C6.56012466 -0.03640213 7.57023102 -0.04297333 8.61094666 -0.04974365 C11.96026686 -0.06948427 15.30954215 -0.08114232 18.65890503 -0.09111023 C20.37555674 -0.09722352 20.37555674 -0.09722352 22.12688828 -0.10346031 C28.18671234 -0.12432643 34.24651374 -0.13862462 40.30636597 -0.147995 C46.55738724 -0.15904762 52.80805139 -0.19343316 59.05894661 -0.23316669 C63.87177174 -0.2593506 68.68451211 -0.26768854 73.49740219 -0.27127647 C75.8010079 -0.27613948 78.1046099 -0.28774522 80.4081459 -0.30631447 C83.63931538 -0.33073798 86.86956547 -0.32973438 90.10079956 -0.32279968 C91.51793495 -0.34201477 91.51793495 -0.34201477 92.96369934 -0.36161804 C102.17339345 -0.28988635 109.1992123 2.91264147 115.92062378 9.15107727 C122.05501081 15.98042754 124.13071074 23.37143892 123.98312378 32.40107727 C123.06666077 41.73837427 118.73022501 49.04409648 111.71359253 55.14717102 C106.9580176 58.20735382 102.10859696 60.2623892 96.42718506 60.29434204 C95.55258133 60.30149734 94.6779776 60.30865265 93.77687073 60.31602478 C92.81996841 60.31871368 91.8630661 60.32140259 90.87716675 60.32417297 C89.36200722 60.33402977 89.36200722 60.33402977 87.8162384 60.34408569 C84.4669182 60.36382632 81.1176429 60.37548436 77.76828003 60.38545227 C76.05162832 60.39156556 76.05162832 60.39156556 74.30029678 60.39780235 C68.24047272 60.41866847 62.18067132 60.43296666 56.12081909 60.44233704 C49.86979782 60.45338966 43.61913366 60.4877752 37.36823845 60.52750874 C32.55541332 60.55369264 27.74267295 60.56203058 22.92978287 60.56561852 C20.62617716 60.57048152 18.32257516 60.58208726 16.01903915 60.60065651 C12.78786967 60.62508002 9.55761959 60.62407642 6.3263855 60.61714172 C5.38162857 60.62995178 4.43687164 60.64276184 3.46348572 60.65596008 C-5.7462084 60.58422839 -12.77202724 57.38170058 -19.49343872 51.14326477 C-25.62782575 44.3139145 -27.70352568 36.92290313 -27.55593872 27.89326477 C-26.63947572 18.55596777 -22.30303995 11.25024556 -15.28640747 5.14717102 C-10.53083254 2.08698822 -5.6814119 0.03195284 0 0 Z " fill="#EEC017" transform="translate(134.28640747070313,351.8528289794922)"/>
    <path d="M0 0 C1.48586525 0.00104062 2.97173326 -0.00000796 4.45759583 -0.00302124 C7.54987471 -0.0028432 10.6410954 0.0177258 13.7331543 0.05419922 C17.67381597 0.09969232 21.61294523 0.10062616 25.55379772 0.08716393 C28.61417498 0.08044764 31.67420984 0.09381056 34.73452187 0.11342239 C36.18680335 0.12105476 37.63912312 0.12345295 39.09142113 0.1202507 C50.55018484 0.11602235 58.91301362 1.7822647 67.4765625 9.73046875 C73.61094953 16.55981902 75.68664946 23.95083039 75.5390625 32.98046875 C74.62259949 42.31776575 70.28616373 49.62348796 63.26953125 55.7265625 C57.64953229 59.34299677 52.47420993 60.84664561 45.84545898 60.91943359 C45.19784103 60.92761108 44.55022308 60.93578857 43.88298035 60.94421387 C41.73970445 60.96902074 39.59649491 60.98557761 37.453125 61 C36.71814348 61.00532368 35.98316196 61.01064735 35.22590828 61.01613235 C31.33054778 61.04285203 27.4352191 61.06222489 23.53979492 61.07666016 C20.33019257 61.08996017 17.12123193 61.11773994 13.91186523 61.15869141 C10.02443971 61.20828659 6.13759289 61.23281439 2.24986458 61.23988724 C0.77599836 61.24655835 -0.69785706 61.26167126 -2.17154121 61.28577805 C-11.11976897 61.42372482 -18.0817855 60.73118338 -25.73046875 55.7265625 C-26.80296875 55.0459375 -27.87546875 54.3653125 -28.98046875 53.6640625 C-34.89583284 48.18812545 -37.95929271 40.61069875 -38.39428711 32.67651367 C-38.48132796 25.05011968 -37.08272821 19.07259446 -32.73046875 12.7265625 C-32.04984375 11.6540625 -31.36921875 10.5815625 -30.66796875 9.4765625 C-22.52007964 0.62381841 -11.22950716 -0.15758124 0 0 Z " fill="#EEC017" transform="translate(521.73046875,104.2734375)"/>
    <path d="M0 0 C1.46021611 0.88003008 2.90215377 1.79208167 4.3125 2.75 C5.67375 3.5853125 5.67375 3.5853125 7.0625 4.4375 C14.18293052 11.75572026 16.63591382 19.53610215 16.7019043 29.48388672 C16.57888085 35.87391162 14.94447467 40.45421571 11.3125 45.75 C10.2915625 47.35875 10.2915625 47.35875 9.25 49 C3.77424552 54.91516687 -3.80361606 57.97957117 -11.73779297 58.41357422 C-19.36207767 58.50149842 -25.32581474 57.07090702 -31.6875 52.75 C-32.595 52.193125 -33.5025 51.63625 -34.4375 51.0625 C-41.55793052 43.74427974 -44.01091382 35.96389785 -44.0769043 26.01611328 C-43.95388085 19.62608838 -42.31947467 15.04578429 -38.6875 9.75 C-38.006875 8.6775 -37.32625 7.605 -36.625 6.5 C-27.51064671 -3.34575201 -11.92297488 -5.70383746 0 0 Z " fill="#EEC017" transform="translate(793.6875,354.25)"/>
</svg>
